<svg width="25" height="25" viewBox="0 0 25 25" fill="none" xmlns="http://www.w3.org/2000/svg">
<path d="M7.8125 1.24023C6.98242 0.46875 5.86914 0 4.64844 0C2.08008 0 0 2.08008 0 4.64844C0 5.56641 0.268555 6.4209 0.727539 7.14355L7.8125 1.24023ZM12.5 5.46875C14.7792 5.46875 16.9651 6.37416 18.5767 7.9858C20.1883 9.59744 21.0938 11.7833 21.0938 14.0625C21.0938 16.3417 20.1883 18.5276 18.5767 20.1392C16.9651 21.7508 14.7792 22.6562 12.5 22.6562C10.2208 22.6562 8.03494 21.7508 6.4233 20.1392C4.81166 18.5276 3.90625 16.3417 3.90625 14.0625C3.90625 11.7833 4.81166 9.59744 6.4233 7.9858C8.03494 6.37416 10.2208 5.46875 12.5 5.46875ZM12.5 25C15.0977 25 17.4854 24.0918 19.3604 22.583L20.6543 23.877L21.4844 24.707L23.1396 23.0469L22.3096 22.2168L21.0156 20.9229C22.5293 19.0479 23.4326 16.6602 23.4326 14.0625C23.4375 8.02246 18.54 3.125 12.5 3.125C6.45996 3.125 1.5625 8.02246 1.5625 14.0625C1.5625 16.6602 2.4707 19.0479 3.97949 20.9229L2.68555 22.2168L1.85547 23.0469L3.51562 24.7021L4.3457 23.8721L5.63965 22.5781C7.51465 24.0918 9.90234 24.9951 12.5 24.9951V25ZM24.2725 7.14844C24.7314 6.42578 25 5.56641 25 4.64844C25 2.08008 22.9199 0 20.3516 0C19.1309 0 18.0176 0.46875 17.1875 1.24023L24.2725 7.14844ZM13.6719 7.8125H11.3281V8.98438V14.4531V15.625H13.6719V14.4531V8.98438V7.8125ZM11.3281 19.9219H13.6719V17.5781H11.3281V19.9219Z" fill="#AEC3B0"/>
</svg>
