<svg width="22" height="25" viewBox="0 0 22 25" fill="none" xmlns="http://www.w3.org/2000/svg">
<g clip-path="url(#clip0_1_46)">
<path d="M21.875 6.25C21.875 8.83789 19.7754 10.9375 17.1875 10.9375C15.7764 10.9375 14.5117 10.3125 13.6523 9.32617L9.27246 11.5186C9.34082 11.8359 9.375 12.1631 9.375 12.5C9.375 12.8369 9.34082 13.1641 9.27246 13.4814L13.6523 15.6738C14.5117 14.6875 15.7764 14.0625 17.1875 14.0625C19.7754 14.0625 21.875 16.1621 21.875 18.75C21.875 21.3379 19.7754 23.4375 17.1875 23.4375C14.5996 23.4375 12.5 21.3379 12.5 18.75C12.5 18.4131 12.5342 18.0859 12.6025 17.7686L8.22266 15.5762C7.36328 16.5625 6.09863 17.1875 4.6875 17.1875C2.09961 17.1875 0 15.0879 0 12.5C0 9.91211 2.09961 7.8125 4.6875 7.8125C6.09863 7.8125 7.36328 8.4375 8.22266 9.42383L12.6025 7.23145C12.5342 6.91406 12.5 6.58691 12.5 6.25C12.5 3.66211 14.5996 1.5625 17.1875 1.5625C19.7754 1.5625 21.875 3.66211 21.875 6.25ZM4.6875 14.8438C5.3091 14.8438 5.90524 14.5968 6.34478 14.1573C6.78432 13.7177 7.03125 13.1216 7.03125 12.5C7.03125 11.8784 6.78432 11.2823 6.34478 10.8427C5.90524 10.4032 5.3091 10.1562 4.6875 10.1562C4.0659 10.1562 3.46976 10.4032 3.03022 10.8427C2.59068 11.2823 2.34375 11.8784 2.34375 12.5C2.34375 13.1216 2.59068 13.7177 3.03022 14.1573C3.46976 14.5968 4.0659 14.8438 4.6875 14.8438ZM19.5312 6.25C19.5312 5.94221 19.4706 5.63744 19.3528 5.35309C19.2351 5.06873 19.0624 4.81036 18.8448 4.59272C18.6271 4.37508 18.3688 4.20244 18.0844 4.08466C17.8001 3.96687 17.4953 3.90625 17.1875 3.90625C16.8797 3.90625 16.5749 3.96687 16.2906 4.08466C16.0062 4.20244 15.7479 4.37508 15.5302 4.59272C15.3126 4.81036 15.1399 5.06873 15.0222 5.35309C14.9044 5.63744 14.8438 5.94221 14.8438 6.25C14.8438 6.55779 14.9044 6.86256 15.0222 7.14691C15.1399 7.43127 15.3126 7.68964 15.5302 7.90728C15.7479 8.12492 16.0062 8.29756 16.2906 8.41534C16.5749 8.53313 16.8797 8.59375 17.1875 8.59375C17.4953 8.59375 17.8001 8.53313 18.0844 8.41534C18.3688 8.29756 18.6271 8.12492 18.8448 7.90728C19.0624 7.68964 19.2351 7.43127 19.3528 7.14691C19.4706 6.86256 19.5312 6.55779 19.5312 6.25ZM17.1875 21.0938C17.8091 21.0938 18.4052 20.8468 18.8448 20.4073C19.2843 19.9677 19.5312 19.3716 19.5312 18.75C19.5312 18.1284 19.2843 17.5323 18.8448 17.0927C18.4052 16.6532 17.8091 16.4062 17.1875 16.4062C16.5659 16.4062 15.9698 16.6532 15.5302 17.0927C15.0907 17.5323 14.8438 18.1284 14.8438 18.75C14.8438 19.3716 15.0907 19.9677 15.5302 20.4073C15.9698 20.8468 16.5659 21.0938 17.1875 21.0938Z" fill="#F25C54"/>
</g>
<defs>
<clipPath id="clip0_1_46">
<rect width="21.875" height="25" fill="white"/>
</clipPath>
</defs>
</svg>
