<svg width="23" height="26" viewBox="0 0 23 26" fill="none" xmlns="http://www.w3.org/2000/svg">
<g clip-path="url(#clip0_34_5)">
<path d="M9.9472 2.84375H13.0528C13.2663 2.84375 13.441 3.01953 13.441 3.23438V5.1875H9.559V3.23438C9.559 3.01953 9.73369 2.84375 9.9472 2.84375ZM7.22981 3.23438V5.1875H6.84161C3.41091 5.1875 0.630432 7.98535 0.630432 11.4375V22.375C0.630432 24.0986 2.0231 25.5 3.73602 25.5V20.0312V17.6875C3.73602 15.9639 5.12869 14.5625 6.84161 14.5625H16.1584C17.8713 14.5625 19.264 15.9639 19.264 17.6875V20.0312V25.5C20.9769 25.5 22.3696 24.0986 22.3696 22.375V11.4375C22.3696 7.98535 19.5891 5.1875 16.1584 5.1875H15.7702V3.23438C15.7702 1.72559 14.5522 0.5 13.0528 0.5H9.9472C8.44778 0.5 7.22981 1.72559 7.22981 3.23438ZM17.7112 25.5V20.8125H5.28882V25.5H17.7112ZM7.61801 9.09375H15.382C15.809 9.09375 16.1584 9.44531 16.1584 9.875C16.1584 10.3047 15.809 10.6562 15.382 10.6562H7.61801C7.19099 10.6562 6.84161 10.3047 6.84161 9.875C6.84161 9.44531 7.19099 9.09375 7.61801 9.09375ZM17.7112 19.25V17.6875C17.7112 16.8232 17.0173 16.125 16.1584 16.125H6.84161C5.98272 16.125 5.28882 16.8232 5.28882 17.6875V19.25H17.7112Z" fill="#F25C54"/>
</g>
<defs>
<clipPath id="clip0_34_5">
<rect width="21.7391" height="25" fill="white" transform="translate(0.630432 0.5)"/>
</clipPath>
</defs>
</svg>
