<svg width="25" height="25" viewBox="0 0 25 25" fill="none" xmlns="http://www.w3.org/2000/svg">
<path d="M4.6875 1.5625H9.375V3.90625H4.6875V1.5625ZM3.32031 5.46875H4.29688H9.76562H10.9375V6.64062V7.8125H14.0625V6.64062V5.46875H15.2344H20.7031H21.6797L21.8555 6.43066L22.5977 10.5176L24.834 14.2383L25 14.5166V14.8438V22.2656V23.4375H23.8281H15.2344H14.0625V22.2656V14.0625H10.9375V22.2656V23.4375H9.76562H1.17188H0V22.2656V14.8438V14.5215L0.166016 14.2432L2.39746 10.5225L3.13965 6.43555L3.32031 5.46875ZM5.27344 7.8125L4.66797 11.1475L4.62891 11.3574L4.5166 11.543L2.34375 15.166V21.0938H8.59375V7.8125H5.27344ZM19.7266 7.8125H16.4062V21.0938H22.6562V15.166L20.4785 11.5381L20.3711 11.3525L20.332 11.1426L19.7266 7.8125ZM20.3125 1.5625V3.90625H15.625V1.5625H20.3125Z" fill="#F25C54"/>
</svg>
