<svg width="32" height="25" viewBox="0 0 32 25" fill="none" xmlns="http://www.w3.org/2000/svg">
<g clip-path="url(#clip0_1_47)">
<path d="M18.3447 0.961914C18.2715 0.571289 18.0078 0.24414 17.6416 0.0927732C17.2754 -0.0585939 16.8555 -0.0146486 16.5283 0.209961L12.5 2.9834L8.47168 0.205078C8.14453 -0.0195315 7.72461 -0.0634768 7.3584 0.0878904C6.99219 0.239258 6.72852 0.566406 6.65528 0.957031L5.77149 5.7666L0.961916 6.65527C0.571291 6.72852 0.244142 6.99219 0.0927752 7.3584C-0.058592 7.72461 -0.0146467 8.14453 0.209963 8.47168L2.9834 12.5L0.20508 16.5283C-0.0195295 16.8555 -0.0634748 17.2754 0.0878923 17.6416C0.23926 18.0078 0.566408 18.2764 0.957033 18.3447L5.7666 19.2285L6.65039 24.0381C6.72363 24.4287 6.98731 24.7559 7.35352 24.9072C7.71973 25.0586 8.13965 25.0146 8.4668 24.79L12.5 22.0166L16.5283 24.7949C16.8555 25.0195 17.2754 25.0635 17.6416 24.9121C18.0078 24.7607 18.2715 24.4336 18.3447 24.043L18.7402 21.8799C17.915 21.8799 17.1387 21.665 16.4648 21.2891L16.3623 21.8408L13.1641 19.6289C12.7637 19.3506 12.2363 19.3506 11.8359 19.6289L8.63281 21.8359L7.92969 18.0127C7.8418 17.5342 7.46582 17.1582 6.98731 17.0703L3.16406 16.3672L5.3711 13.1641C5.64942 12.7637 5.64942 12.2363 5.3711 11.8359L3.16406 8.63281L6.98731 7.92969C7.46582 7.8418 7.8418 7.46582 7.92969 6.98731L8.63281 3.16406L11.8359 5.37109C12.2363 5.64941 12.7637 5.64941 13.1641 5.37109L16.3672 3.16406L17.0703 6.98731C17.1582 7.46582 17.5342 7.8418 18.0127 7.92969L21.8359 8.63281L21.1865 9.5752C21.6553 9.44336 22.1484 9.375 22.6563 9.375C23.1348 9.375 23.6035 9.43848 24.0479 9.55566L24.7949 8.47656C25.0195 8.14941 25.0635 7.72949 24.9121 7.36328C24.7607 6.99707 24.4336 6.7334 24.043 6.66016L19.2334 5.77637L18.3447 0.961914ZM12.5 7.03125C9.47754 7.03125 7.03125 9.47754 7.03125 12.5C7.03125 15.5225 9.47754 17.9688 12.5 17.9688C13.0566 17.9688 13.5889 17.8857 14.0918 17.7344C14.0723 17.5537 14.0625 17.373 14.0625 17.1875C14.0625 16.1426 14.4043 15.1758 14.9805 14.3994C14.4092 15.1416 13.5107 15.625 12.5 15.625C10.7764 15.625 9.375 14.2236 9.375 12.5C9.375 10.7764 10.7764 9.375 12.5 9.375C14.2236 9.375 15.625 10.7764 15.625 12.5C15.625 13.1934 15.4004 13.833 15.0195 14.3506C15.6641 13.5059 16.5869 12.8857 17.6563 12.627C17.7441 12.4316 17.8418 12.2363 17.9541 12.0557C17.7246 9.24316 15.3711 7.03125 12.5 7.03125ZM18.75 20.3125H27.7344C29.6777 20.3125 31.25 18.7402 31.25 16.7969C31.25 14.8535 29.6777 13.2812 27.7344 13.2812C27.2412 13.2812 26.7725 13.3838 26.3477 13.5645C25.8203 12.0361 24.3652 10.9375 22.6563 10.9375C20.7666 10.9375 19.1895 12.2803 18.8281 14.0625C18.8037 14.0625 18.7744 14.0625 18.75 14.0625C17.0264 14.0625 15.625 15.4639 15.625 17.1875C15.625 18.9111 17.0264 20.3125 18.75 20.3125Z" fill="#F25C54"/>
</g>
<defs>
<clipPath id="clip0_1_47">
<rect width="31.25" height="25" fill="white"/>
</clipPath>
</defs>
</svg>
