<?xml version="1.0" encoding="UTF-8"?>
<svg width="103px" height="33px" viewBox="0 0 103 33" version="1.1" xmlns="http://www.w3.org/2000/svg" xmlns:xlink="http://www.w3.org/1999/xlink">
    <title>coleman</title>
    <g id="Home" stroke="none" stroke-width="1" fill="none" fill-rule="evenodd">
        <g transform="translate(-761.000000, -1186.000000)" fill-rule="nonzero" id="logos">
            <g transform="translate(160.000000, 1184.000000)">
                <g id="coleman" transform="translate(601.000000, 2.000000)">
                    <polygon id="Path" fill="#FFFFFF" points="7.47609462 27.624209 94.2158824 27.624209 95.1732829 25.0990434 8.28526371 25.0990434"></polygon>
                    <path d="M96.8927672,0.04096 L14.2459102,0.04096 C10.6273199,0.0810696749 8.57475093,2.55391833 7.88067917,4.58730445 L0.202292273,26.7138938 C0.0755086673,27.1409839 0.00745312822,27.5833449 0,28.0287936 C0.00523169673,30.2714476 1.60613089,32.2333338 3.94121153,32.2716996 L86.9909092,32.2716996 C89.6416356,32.2350777 93.0858359,30.920178 94.3658577,27.624209 L7.47609462,27.624209 L8.28526371,25.0990434 L95.1732829,25.0990434 L101.943098,5.90220423 C103.292876,2.45102829 101.662331,-0.0235642596 96.8927672,0.04096 Z" id="Path" fill="#000000"></path>
                    <path d="M95.276173,16.5120852 L92.5487151,14.893747 C92.4423372,14.8135277 92.2941058,14.8571251 92.2452767,14.996637 C92.1598256,15.1256856 92.2086548,15.2878682 92.3464228,15.3994777 L95.0738807,17.1172181 C94.1391509,20.5840891 91.5407415,23.0639134 88.5063574,23.0778646 C85.4353514,23.0621695 82.8386859,20.585833 81.837688,17.1172181 L84.666292,15.3994777 C84.7761576,15.2878682 84.8249868,15.1239417 84.769182,14.996637 C84.6924505,14.858869 84.5424752,14.8152716 84.4657436,14.893747 L84.3628536,14.893747 L81.7365418,16.5120852 C81.5340619,15.7194233 81.4321152,14.9044355 81.4330963,14.0863218 C81.4383351,13.6573227 81.4592619,13.2597137 81.5342496,12.8743121 L84.5651459,12.8743121 C84.7175412,12.8423355 84.8366077,12.7232689 84.8685843,12.5708737 C84.8338293,12.4199999 84.7160197,12.3021902 84.5651459,12.2674352 L81.5342496,12.2674352 C81.7426653,11.1861439 82.0823326,10.1343466 82.5457109,9.13539281 L84.3628536,10.1451103 C84.4657436,10.2602076 84.613975,10.2148662 84.666292,10.0439641 C84.7412797,9.942818 84.6907066,9.7823793 84.5651459,9.74052573 L82.8474054,8.72906436 L82.8474054,8.62966212 C84.1239394,6.47420307 86.1747646,5.05292546 88.5063574,5.09477904 C90.7943528,5.05466936 92.843434,6.47071528 94.1635655,8.62966212 L94.1635655,8.73080826 L92.445825,9.74226963 C92.2941058,9.7823793 92.2417889,9.9445619 92.3446789,10.045708 C92.3708374,10.2148662 92.5190688,10.2619515 92.6481173,10.1468542 L94.3658577,9.13713671 L94.4670039,9.23828284 C94.8837957,10.1224396 95.2221121,11.1635472 95.3755752,12.2691791 L92.445825,12.2691791 C92.2627156,12.305801 92.1511061,12.4226422 92.1423866,12.5726176 C92.1511061,12.7278246 92.2627156,12.8429219 92.445825,12.876056 L95.4767213,12.876056 C95.5133432,13.271921 95.53427,13.6625544 95.5778675,14.0880657 C95.5392654,14.9025835 95.4384062,15.7129546 95.276173,16.5120852 L95.276173,16.5120852 Z" id="Path" fill="#FFFFFF"></path>
                    <path d="M89.1132342,6.61022719 C89.1393927,6.63812957 89.2789046,6.63638567 89.3137826,6.71137332 C89.3347094,6.73230011 89.3399411,6.7427635 89.3137826,6.71137332 L89.4166726,6.81251946 C89.4368043,6.88592748 89.4711713,6.95466159 89.5178188,7.01481173 C89.564904,7.09677498 89.6259405,7.13339686 89.720111,7.11595787 C89.7855772,7.13519013 89.8551932,7.13519013 89.9206594,7.11595787 C90.0741225,7.13514076 90.0967932,7.15781145 90.1229517,7.21710401 C90.203171,7.34789643 90.2537441,7.39846949 90.325244,7.51879852 C90.340939,7.5414692 90.3130367,7.58332278 90.2223539,7.62168855 C90.1752687,7.58506668 90.100281,7.58506668 90.0218055,7.62168855 C89.9468179,7.58506668 89.9171716,7.62168855 89.9189155,7.62168855 C89.9748252,7.73005867 90.0426776,7.83183716 90.1212078,7.92512696 C90.1613175,8.01057801 90.2240978,8.04719989 90.3235001,8.0262731 C90.3461707,8.04894379 90.428134,8.04894379 90.5240484,8.0262731 C90.6548409,8.04894379 90.6775115,8.07161447 90.7263407,8.12741924 L90.7263407,8.22856537 C90.8274868,8.31576032 91.0175718,8.56339397 91.1291814,8.63140602 C91.3646077,8.8336983 91.5389976,8.89124696 91.634912,8.93484443 C91.7534972,8.9854175 91.7796556,9.06563685 91.7360582,9.13713671 C91.7813995,9.23653894 91.7133875,9.27839252 91.634912,9.23828284 C91.6575827,9.27839252 91.4954001,9.27839252 91.2320714,9.23828284 C91.0210596,9.27839252 91.0210596,9.35686797 91.0297791,9.54172125 C91.0210329,11.0234411 91.0210329,12.5051997 91.0297791,13.9869196 C91.0210596,14.2938458 90.9617671,14.3862724 90.6269385,14.4926503 C90.3391951,14.6339061 89.9834398,14.6496012 90.0200616,15.1989293 C89.9834398,15.7343063 89.9834398,16.2592198 90.0200616,16.2103907 L86.9891653,16.2103907 C86.9577752,16.2609637 86.9577752,15.7343063 86.9891653,15.1989293 C86.9577752,14.6496012 86.6020198,14.6339061 86.2828863,14.4926503 C85.9811918,14.3862724 85.9218992,14.2938458 85.8783017,13.9869196 C85.9218992,13.6119813 85.9218992,9.59055042 85.8783017,9.54172125 C85.9218992,9.35861187 85.9218992,9.28013642 85.6777534,9.23828284 C85.4475587,9.27839252 85.2853761,9.27839252 85.2731688,9.23828284 C85.2295713,9.27839252 85.1633032,9.23653894 85.1720227,9.13713671 C85.1603607,9.05522851 85.2006451,8.97465977 85.2731688,8.93484443 C85.465904,8.88087424 85.6405798,8.77606874 85.7788995,8.63140602 C85.9271309,8.56339397 86.1172159,8.31401642 86.1817402,8.22856537 L86.1817402,8.12567534 C86.2671912,8.06987057 86.2898619,8.04719989 86.3840324,8.0245292 L86.4851786,8.0245292 C86.5183126,8.04719989 86.598532,8.04719989 86.6874708,8.0245292 C86.7223488,8.04719989 86.7833853,8.00883411 86.788617,7.92338307 C86.8899211,7.84944876 86.9616253,7.74189245 86.9909092,7.61994466 C87.0275311,7.61994466 86.9996287,7.58332278 86.8897631,7.61994466 C86.8461656,7.58332278 86.771178,7.58332278 86.6874708,7.61994466 C86.63341,7.58332278 86.6055076,7.53972531 86.6874708,7.51705462 C86.6927025,7.3967256 86.7432756,7.34440863 86.788617,7.21536011 C86.8513973,7.15606755 86.874068,7.13339686 86.9909092,7.11421397 C87.0850798,7.13339686 87.1827381,7.13339686 87.2943477,7.11421397 C87.32225,7.13339686 87.3832865,7.09503108 87.3954938,7.01306784 C87.4635058,6.97295816 87.529774,6.85437303 87.5977861,6.81077556 L87.5977861,6.71137332 C87.6082495,6.7427635 87.6134812,6.73230011 87.5977861,6.71137332 C87.6692859,6.63638567 87.8087978,6.63812957 87.7983344,6.61022719 L89.1132342,6.61022719 L89.1132342,6.61022719 Z" id="Path" fill="#000000"></path>
                    <path d="M86.3840324,13.8840295 L86.3840324,9.43883122 C86.3665934,9.38477035 86.4398372,9.3080388 86.4851786,9.33594118 L90.4263901,9.33594118 C90.5048655,9.3062949 90.5815971,9.38302645 90.6286824,9.43883122 L90.6286824,13.8840295 C90.5815971,13.9537855 90.5066094,14.0287731 90.4263901,13.9851757 L86.4851786,13.9851757 C86.4328616,14.0287731 86.3665934,13.9502977 86.3840324,13.8840295 L86.3840324,13.8840295 Z" id="Path" fill="#FFFFFF"></path>
                    <path d="M85.6760095,19.947566 C85.614973,19.9562855 85.5870706,19.9248954 85.5748633,19.844676 C85.5870706,19.637152 85.5870706,18.6082517 85.5748633,17.8252411 C85.5870706,16.8626089 86.5183126,16.6620605 86.7868731,16.6132313 C87.099031,16.6620605 88.5325159,16.6620605 88.5046135,16.6132313 C88.4767111,16.6620605 89.9136838,16.6620605 90.2223539,16.6132313 C90.4909144,16.6620605 91.4221564,16.8643528 91.4343637,17.8252411 C91.421572,18.4983253 91.421572,19.1715918 91.4343637,19.844676 C91.4221564,19.9248954 91.3959979,19.9545416 91.3332175,19.947566 L85.6760095,19.947566 L85.6760095,19.947566 Z M85.4493026,20.3504067 C85.3987295,20.3469189 85.3690833,20.3783091 85.3481565,20.4515528 L85.3481565,20.8561374 C85.3658571,20.9027652 85.4026748,20.9395829 85.4493026,20.9572835 L91.5372537,20.9572835 C91.5841357,20.939978 91.6210943,20.9030194 91.6383998,20.8561374 L91.6383998,20.4515528 C91.617473,20.3783091 91.5878268,20.3469189 91.5372537,20.3504067 L85.4493026,20.3504067 L85.4493026,20.3504067 Z" id="Shape" fill="#000000"></path>
                    <path d="M37.6856554,4.58904835 L31.6238628,22.5721339 L28.7952588,22.5721339 L34.8570514,4.58904835 L37.6856554,4.58904835 Z M53.8515983,14.1874679 C54.080049,13.5631521 54.7933037,13.0591654 55.3670464,13.0766043 C56.0401914,13.0591654 56.3872273,13.634652 56.1744716,14.1874679 L53.3458676,22.5721339 L56.1744716,22.5721339 L59.0048196,14.3897602 C59.8889763,11.6867169 58.1014799,10.528768 56.7813485,10.5496948 C55.7071067,10.4973779 54.4183654,11.0031085 53.7504522,11.6623023 C53.5220014,11.1618033 52.9866244,10.5339997 52.0327117,10.5496948 C51.1119331,10.495634 50.2992762,10.9246331 49.7080945,11.4582662 L49.9103868,10.7519871 L47.0817827,10.7519871 L43.041169,22.5721339 L45.869773,22.5721339 L48.698377,14.185724 C48.9285717,13.4480548 49.6505458,13.0574215 50.3149713,13.0748604 C50.8974335,13.0574215 51.2479572,13.5614082 51.0229943,14.185724 L48.1943902,22.5721339 L51.0229943,22.5721339 L53.8515983,14.1874679 L53.8515983,14.1874679 Z M79.2113762,13.2771527 L76.0793338,22.5721339 L73.2507297,22.5721339 L76.0793338,14.4891625 C76.3914917,13.4218963 75.4968715,12.9737143 74.764434,13.0748604 C74.229057,13.169031 73.5506804,13.5265303 73.1478397,14.7926009 L70.4203818,22.5721339 L67.5917778,22.5721339 L71.6323916,10.7519871 L74.4609956,10.7519871 L74.2604472,11.4582662 C74.9074337,10.9350965 75.885761,10.5200485 76.7856128,10.5496948 C78.0708663,10.5026096 79.5915462,11.6152171 79.2113762,13.2771527 L79.2113762,13.2771527 Z M67.1871932,11.3588639 C66.7863464,10.8580562 66.2068028,10.5323364 65.570599,10.4502926 C63.5145421,9.98292768 60.8149866,12.4243861 59.5070624,15.8040622 C58.2584308,19.1314213 58.8635638,22.2652077 60.9231084,22.67328 C61.7636676,22.8651089 63.0105554,22.605268 63.8528585,21.5624164 L63.7517124,21.6635626 L63.5494201,22.5721339 L66.276878,22.5721339 L70.2180895,10.650841 L67.4906317,10.650841 L67.1871932,11.3588639 Z" id="Shape" fill="#FFFFFF"></path>
                    <path d="M65.0666122,13.3782989 C66.1844514,13.8404321 65.2340265,16.5417315 64.5608815,17.722351 C63.8668097,18.981446 62.8152387,20.1080047 62.0357159,19.9458221 C61.2335224,19.7121397 61.2753759,17.7328144 62.1386059,16.0046106 C63.050665,14.2764068 64.189431,12.9737143 65.0666122,13.3782989 Z" id="Path" fill="#000000"></path>
                    <path d="M26.9763722,10.4485487 C24.3971457,10.4938901 21.5493588,13.2108846 20.5099951,16.7126336 C19.5717774,20.0382488 20.8326164,22.8162797 23.3385991,22.7761701 C25.8463257,22.8162797 28.6958565,20.102773 29.7038301,16.7126336 C30.6612306,13.3155185 29.5050256,10.495634 26.9763722,10.4485487 L26.9763722,10.4485487 Z M43.041169,18.7338124 L40.3137111,18.7338124 C39.6841636,19.56914 38.9639333,20.0835902 38.2942761,20.0469683 C37.434534,20.0835902 37.0700591,19.033763 37.2828148,17.6212049 L43.5468996,17.6212049 C43.7230334,17.2532422 43.8730087,16.8852796 43.9497403,16.5103413 C44.9158603,13.2823844 43.7805821,10.443317 41.3234285,10.4467975 C38.7511776,10.4415731 35.9487321,13.2597137 34.9581975,16.7108897 C33.983358,20.0469683 35.2319896,22.7622189 37.6856554,22.7744262 C39.5463955,22.7622189 41.8082324,21.1142344 42.9400228,19.0355069 L43.041169,18.7338124 L43.041169,18.7338124 Z" id="Shape" fill="#FFFFFF"></path>
                    <path d="M17.8836833,19.4418354 C17.043124,20.1603217 16.2444183,20.5910647 15.4579199,20.5544429 C13.3286194,20.5753696 12.6258281,17.3665957 13.5396311,13.8840295 C14.5650437,10.1363908 17.1285751,7.00086054 19.2979853,7.01481173 C20.4541903,7.02004343 21.6592244,7.89024899 21.8248948,9.53997735 L24.4512066,8.0245292 C23.720513,5.54993665 21.6452733,4.06413478 19.5002776,4.08331767 C15.7421754,4.04669579 11.5690254,8.53374768 10.2052964,13.9851757 C8.9496892,18.8733243 10.9569168,24.0003871 14.5493486,23.9882016 C16.0578211,23.9794603 17.8017201,23.243535 19.3991315,21.967001 L17.8836833,19.4418354 L17.8836833,19.4418354 Z" id="Path" fill="#FFFFFF"></path>
                    <path d="M37.9890938,15.5006238 C38.2437031,14.9303689 38.5610927,14.4438211 38.8976652,13.9851757 C39.4748957,13.376555 40.1672236,12.9231412 40.6136617,12.8743121 C41.5605988,12.9196534 41.9390248,14.0008708 41.7262692,15.5006238 L37.9890938,15.5006238 L37.9890938,15.5006238 Z" id="Path" fill="#000000"></path>
                    <path d="M3.43548085,26.3110532 C3.39188338,25.5001402 4.05282106,24.8409464 4.85152676,24.795605 C5.67300291,24.8318532 6.33072669,25.489577 6.36697491,26.3110532 C6.33482825,27.134329 5.67480257,27.7943546 4.85152676,27.8265013 C4.05107716,27.7898794 3.39013948,27.1289417 3.43548085,26.3110532 L3.43548085,26.3110532 Z" id="Path" fill="#FFFFFF"></path>
                    <path d="M3.53488309,26.3110532 C3.57673666,25.6222131 4.1487355,25.0519581 4.84978286,25.0990434 C5.55606192,25.053702 6.12631687,25.623957 6.16293874,26.3110532 C6.13359359,27.0237802 5.56250994,27.5948639 4.84978286,27.624209 C4.13851795,27.590871 3.56916507,27.0222732 3.53488309,26.3110532 L3.53488309,26.3110532 Z" id="Path" fill="#000000"></path>
                    <path d="M5.45665968,27.1202222 L5.15322127,27.1202222 L4.74863673,26.5133454 L4.64749059,26.5133454 L4.64749059,27.1202222 L4.34405218,27.1202222 L4.34405218,25.5018841 L4.950929,25.5018841 C5.30668438,25.5385059 5.54908633,25.6030302 5.55780582,26.0076147 C5.54908633,26.2936142 5.40434272,26.4453334 5.15496517,26.5133454 L5.45665968,27.1202222 L5.45665968,27.1202222 Z" id="Path" fill="#FFFFFF"></path>
                    <path d="M4.950929,26.209907 C5.13229449,26.1872363 5.23518452,26.1506145 5.25436741,26.0076147 C5.23518452,25.8157859 5.03114835,25.8157859 4.85152676,25.8070664 L4.64749059,25.8070664 L4.64749059,26.209907 L4.950929,26.209907 Z M26.2683493,13.1777505 C27.4018835,13.1585676 27.7349682,14.7263327 27.0757745,16.6132313 C26.3712393,18.5698859 24.9848397,20.0556878 23.8425859,20.0487366 C22.6724297,20.0556878 22.3655035,18.4879227 23.0334168,16.6132313 C23.3508064,15.7081478 23.8338664,14.8728202 24.4494627,14.1874679 C25.0232054,13.5980301 25.7416918,13.1585676 26.2683493,13.1777505 Z" id="Shape" fill="#000000"></path>
                </g>
            </g>
        </g>
    </g>
</svg>