<?xml version="1.0" encoding="UTF-8"?>
<svg width="103px" height="19px" viewBox="0 0 103 19" version="1.1" xmlns="http://www.w3.org/2000/svg" xmlns:xlink="http://www.w3.org/1999/xlink">
    <title>columbia-sportswear-co-logo</title>
    <g id="Home" stroke="none" stroke-width="1" fill="none" fill-rule="evenodd">
        <g transform="translate(-602.000000, -1193.000000)" fill="#000000" fill-rule="nonzero" id="logos">
            <g transform="translate(160.000000, 1184.000000)">
                <g id="columbia-sportswear-co-logo" transform="translate(442.000000, 9.000000)">
                    <path d="M5.50029967,11.0005993 C6.01195546,11.5122551 6.01195546,12.2797388 5.50029967,12.7913946 L5.05260086,13.2390934 C4.54094508,13.7507492 3.7734614,13.7507492 3.26180562,13.2390934 L0.383741838,10.3610296 C-0.127913946,9.84937383 -0.127913946,9.08189016 0.383741838,8.57023437 L0.831440648,8.12253556 C1.34309643,7.61087978 2.11058011,7.61087978 2.62223589,8.12253556 L5.50029967,11.0005993 Z M5.18051481,5.50029967 C4.66885903,4.98864389 3.90137535,4.98864389 3.38971957,5.50029967 L2.94202076,5.94799848 C2.43036497,6.45965427 2.43036497,7.22713794 2.94202076,7.73879373 L5.82008454,10.6168575 C6.33174032,11.1285133 7.099224,11.1285133 7.61087978,10.6168575 L8.05857859,10.1691587 C8.57023437,9.65750291 8.57023437,8.89001924 8.05857859,8.37836346 L5.18051481,5.50029967 Z M12.8553516,8.05857859 C12.3436958,7.54692281 11.5762121,7.54692281 11.0645563,8.05857859 L10.6168575,8.5062774 C10.1052017,9.01793319 10.1052017,9.78541686 10.6168575,10.2970726 L13.4949213,13.1751364 C14.0065771,13.6867922 14.7740608,13.6867922 15.2857165,13.1751364 L15.7334153,12.7274376 C16.2450711,12.2157818 16.2450711,11.4482982 15.7334153,10.9366424 L12.8553516,8.05857859 Z M15.4775875,5.4363427 C14.9659317,4.92468692 14.198448,4.92468692 13.6867922,5.4363427 L13.2390934,5.88404151 C12.7274376,6.39569729 12.7274376,7.16318097 13.2390934,7.67483675 L16.1171572,10.5529005 C16.628813,11.0645563 17.3962966,11.0645563 17.9079524,10.5529005 L18.3556512,10.1052017 C18.867307,9.59354594 18.867307,8.82606227 18.3556512,8.31440648 L15.4775875,5.4363427 Z M10.6808145,2.62223589 C11.1924703,2.11058011 11.1924703,1.34309643 10.6808145,0.831440648 L10.2331157,0.383741838 C9.72145989,-0.127913946 8.95397621,-0.127913946 8.44232043,0.383741838 L5.56425665,3.26180562 C5.05260086,3.7734614 5.05260086,4.54094508 5.56425665,5.05260086 L6.01195546,5.50029967 C6.52361124,6.01195546 7.29109492,6.01195546 7.8027507,5.50029967 L10.6808145,2.62223589 Z M13.2390934,5.18051481 C13.7507492,4.66885903 13.7507492,3.90137535 13.2390934,3.38971957 L12.7913946,2.94202076 C12.2797388,2.43036497 11.5122551,2.43036497 11.0005993,2.94202076 L8.12253556,5.82008454 C7.61087978,6.33174032 7.61087978,7.099224 8.12253556,7.61087978 L8.57023437,8.05857859 C9.08189016,8.57023437 9.84937383,8.57023437 10.3610296,8.05857859 L13.2390934,5.18051481 Z M10.6808145,12.7274376 C11.1924703,12.2157818 11.1924703,11.4482982 10.6808145,10.9366424 L10.2331157,10.4889436 C9.72145989,9.97728778 8.95397621,9.97728778 8.44232043,10.4889436 L5.56425665,13.3670073 C5.05260086,13.8786631 5.05260086,14.6461468 5.56425665,15.1578026 L6.01195546,15.6055014 C6.52361124,16.1171572 7.29109492,16.1171572 7.8027507,15.6055014 L10.6808145,12.7274376 Z M13.2390934,15.2857165 C13.7507492,14.7740608 13.7507492,14.0065771 13.2390934,13.4949213 L12.7913946,13.0472225 C12.2797388,12.5355667 11.5122551,12.5355667 11.0005993,13.0472225 L8.18649254,15.9892432 C7.67483675,16.500899 7.67483675,17.2683827 8.18649254,17.7800385 L8.63419135,18.2277373 C9.14584713,18.7393931 9.91333081,18.7393931 10.4249866,18.2277373 L13.2390934,15.2857165 Z M34.2169805,12.7913946 C34.2809375,12.9193085 34.6646793,13.4949213 34.6646793,13.4949213 C34.4728084,14.3903189 33.8971957,15.6055014 33.8971957,15.6055014 L33.8332387,15.6694584 C31.7226586,16.500899 28.396896,17.2044257 24.8792625,15.7973723 C22.7686824,14.9659317 21.233715,13.3030504 20.6581023,11.1285133 C20.0185325,8.89001924 20.4662313,6.45965427 21.8732847,4.54094508 C23.4082521,2.49432194 25.8386171,1.34309643 29.1643797,1.15122551 C30.4435191,1.08726854 33.001798,1.4070534 34.4088514,2.23849405 L34.5367654,2.23849405 C34.5367654,2.23849405 34.6007224,5.75612757 34.5367654,5.88404151 L34.4728084,6.07591243 L33.4494969,6.1398694 L33.3855399,5.75612757 C33.193669,4.732816 32.7459701,2.04662313 28.9725087,2.23849405 C27.3735844,2.30245103 26.030488,3.13389167 25.0711334,4.41303113 C23.8559509,6.01195546 23.536166,8.12253556 24.0478218,10.5529005 C24.5594776,12.8553516 26.3502729,14.3263619 27.6933693,14.9019747 C28.268982,15.0938456 30.0597773,15.5415444 31.4028737,14.9019747 C32.5540992,14.3263619 33.7053247,13.4309643 34.2169805,12.7913946 M47.1362891,16.500899 L47.1362891,4.41303113 C47.1362891,4.0292893 47.1362891,3.38971957 46.7525472,2.94202076 C46.6885903,2.87806378 46.1129775,2.43036497 46.1129775,2.43036497 L46.1129775,1.91870919 L49.3747831,1.27913946 L49.694568,1.47101038 L49.694568,14.4542759 C49.758525,15.6694584 50.5899656,15.7973723 50.5899656,15.7973723 L50.5899656,16.564856 L47.1362891,16.500899 Z M61.526608,15.6694584 C60.9509952,15.5415444 60.6312104,15.0298886 60.6312104,14.198448 L60.6312104,6.52361124 L60.3753825,6.39569729 L57.1135768,7.03526702 L57.1135768,7.54692281 C57.1135768,7.54692281 57.6891896,7.99462162 57.7531466,8.05857859 C58.1368884,8.5062774 58.1368884,9.14584713 58.1368884,9.52958897 L58.1368884,14.070534 C57.0496199,14.9019747 56.0902653,15.1578026 55.3867386,14.8380177 C54.8750828,14.5821898 54.5552979,13.9426201 54.5552979,13.0472225 L54.5552979,6.52361124 L54.29947,6.39569729 L51.0376644,7.03526702 L51.0376644,7.54692281 C51.0376644,7.54692281 51.6132772,7.99462162 51.6772341,8.05857859 C52.124933,8.5062774 52.124933,9.14584713 52.060976,9.52958897 L52.060976,13.4309643 C52.060976,14.198448 52.124933,14.4542759 52.1888899,14.7740608 C52.3807608,15.6055014 52.8924166,16.1811142 53.5959433,16.436942 C54.7471688,16.8846409 56.4100501,16.436942 58.1368884,15.2857165 L58.1368884,16.3729851 L61.7184789,16.3729851 L61.7184789,15.6694584 L61.526608,15.6694584 Z M77.7716791,15.6694584 C77.1960663,15.5415444 76.9402385,15.0298886 76.8762815,14.198448 L76.8762815,9.52958897 C76.8762815,8.44232043 76.3006687,6.39569729 74.1900886,6.39569729 C72.5911643,6.39569729 71.5678527,7.35505189 70.99224,7.86670767 C70.6724551,7.16318097 69.9689284,6.39569729 68.6897889,6.39569729 C67.6664774,6.39569729 66.7710798,6.77943913 65.8756821,7.54692281 L65.8756821,6.58756821 L65.5558973,6.39569729 L62.2940916,7.03526702 L62.2940916,7.54692281 C62.2940916,7.54692281 62.8697044,7.99462162 62.9336614,8.05857859 C63.3174032,8.5062774 63.3174032,9.14584713 63.3174032,9.52958897 L63.3174032,16.3729851 L66.8989937,16.3729851 L66.8989937,15.6694584 L66.7071228,15.6055014 C66.13151,15.4775875 65.8756821,15.0298886 65.8756821,14.134491 L65.8756821,8.63419135 C66.5152519,8.12253556 67.1548216,7.99462162 67.7943913,8.05857859 C68.3060471,8.12253556 68.8816599,8.5062774 68.8816599,10.4249866 L68.8816599,16.3090281 L72.3992934,16.3090281 L72.3992934,15.6055014 L72.2074225,15.5415444 C71.6318097,15.4136305 71.3759818,14.9659317 71.3120248,14.070534 L71.3120248,9.40167502 C71.3120248,9.27376108 71.3120248,8.89001924 71.2480679,8.63419135 C71.8876376,8.05857859 72.5272073,7.99462162 73.1667771,8.05857859 C73.6784328,8.12253556 74.2540456,8.5062774 74.2540456,10.4249866 L74.2540456,16.3090281 L77.7716791,16.3090281 L77.7716791,15.6055014 L77.7716791,15.6694584 Z M45.9850635,11.4482982 C45.9850635,9.97728778 45.4734078,8.63419135 44.5780101,7.73879373 C43.6186555,6.77943913 42.2755591,6.26778335 40.6126778,6.26778335 C37.5427431,6.26778335 35.2402921,8.5062774 35.2402921,11.4482982 C35.2402921,14.5821898 37.3508722,16.628813 40.6126778,16.628813 C42.1476452,16.628813 43.5546986,16.1171572 44.5140532,15.1578026 C45.4734078,14.134491 45.9850635,12.8553516 45.9850635,11.4482982 M40.6126778,15.4775875 C38.6300117,15.4775875 38.0543989,13.9426201 38.0543989,11.3843412 C38.0543989,9.52958897 38.6300117,7.29109492 40.6126778,7.29109492 C42.595344,7.29109492 43.1709567,9.52958897 43.1709567,11.3843412 C43.1709567,13.9426201 42.595344,15.4775875 40.6126778,15.4775875 M89.79559,3.26180562 C89.79559,2.55827892 90.3712028,1.91870919 91.1386864,1.91870919 C91.8422132,1.91870919 92.4817829,2.49432194 92.4817829,3.26180562 C92.4817829,4.0292893 91.9061701,4.60490205 91.1386864,4.60490205 C90.3712028,4.60490205 89.79559,3.96533232 89.79559,3.26180562 M89.923504,16.3729851 L89.923504,9.465632 C89.923504,9.08189016 89.923504,8.44232043 89.5397621,7.99462162 C89.4758052,7.93066465 88.9001924,7.48296583 88.9001924,7.48296583 L88.9001924,6.97131005 L92.161998,6.33174032 L92.4817829,6.52361124 L92.4817829,14.198448 C92.4817829,15.0298886 92.8015677,15.5415444 93.3132235,15.6694584 L93.5050944,15.7334153 L93.5050944,16.436942 L89.923504,16.3729851 Z M88.0687517,8.76210529 C87.365225,7.54692281 86.4698274,6.77943913 85.3825589,6.52361124 C83.8475915,6.1398694 82.3126242,6.84339611 81.3532696,7.35505189 L81.3532696,1.4070534 L81.0334847,1.21518249 L77.7716791,1.85475222 L77.7716791,2.366408 C77.7716791,2.366408 78.3472919,2.81410681 78.4112488,2.87806378 C78.7949907,3.32576259 78.7949907,3.90137535 78.7949907,4.34907416 L78.7949907,15.6694584 L78.9229046,15.7334153 C80.7776568,16.6927699 83.2080218,16.8206839 84.998817,16.1171572 C86.9814832,15.2857165 87.8768808,13.8786631 88.1966657,12.8553516 C88.8362354,11.2564272 88.5804075,9.65750291 88.0687517,8.76210529 M85.3825589,14.134491 C84.8069461,15.0938456 83.6557206,15.6694584 82.760323,15.4136305 C81.8649254,15.1578026 81.3532696,14.198448 81.3532696,12.7274376 L81.3532696,8.57023437 C81.3532696,8.57023437 81.4172266,8.57023437 81.4811835,8.5062774 C82.0567963,8.25044951 83.0801079,7.67483675 84.4232043,8.37836346 C85.126731,8.76210529 85.7023437,9.465632 85.9581716,10.3610296 C86.2779565,11.5762121 86.0860856,12.9193085 85.3825589,14.134491 M102.331157,15.3496735 L102.139286,15.2857165 C102.011372,15.2857165 101.755544,14.9019747 101.755544,14.3263619 L101.755544,9.78541686 C101.755544,8.44232043 101.307845,7.41900886 100.540361,6.90735308 C99.8368348,6.39569729 98.8774802,6.33174032 97.7262547,6.71548216 C96.3831582,7.16318097 94.4004921,8.89001924 94.0807072,9.27376108 L94.0167502,9.33771805 L94.0167502,9.465632 C94.0167502,9.59354594 94.2086212,9.78541686 94.2725781,9.91333081 L94.3365351,9.97728778 L96.5750291,9.97728778 L96.5750291,9.33771805 C96.5750291,8.44232043 97.1506419,7.99462162 97.6622977,7.93066465 C98.1739535,7.86670767 98.4937383,7.86670767 98.7495662,8.05857859 C99.0693511,8.31440648 99.261222,8.95397621 99.261222,9.97728778 L99.261222,10.5529005 L94.592363,12.5995237 L94.528406,12.6634806 L94.528406,12.7274376 C94.0807072,14.0065771 94.2086212,15.0298886 94.7842339,15.7334153 C95.7435885,16.8206839 98.1099965,16.9485978 101.563673,16.1811142 C101.819501,16.1171572 102.395114,16.0532002 102.395114,16.0532002 C102.331157,15.9892432 102.331157,15.3496735 102.331157,15.3496735 M99.325179,11.5762121 L99.325179,15.0938456 C98.5576953,15.6055014 97.7902116,15.6694584 97.2145989,15.2217596 C96.6389861,14.7101038 96.5110722,13.8147062 96.894814,12.9193085 L99.325179,11.5762121 Z" id="Shape"></path>
                </g>
            </g>
        </g>
    </g>
</svg>