<?xml version="1.0" encoding="UTF-8"?>
<svg width="100px" height="20px" viewBox="0 0 100 20" version="1.1" xmlns="http://www.w3.org/2000/svg" xmlns:xlink="http://www.w3.org/1999/xlink">
    <title>patagonia</title>
    <g id="Home" stroke="none" stroke-width="1" fill="none" fill-rule="evenodd">
        <g transform="translate(-296.000000, -1193.000000)" fill="#000000" fill-rule="nonzero" id="logos">
            <g transform="translate(160.000000, 1184.000000)">
                <g id="patagonia" transform="translate(136.000000, 9.000000)">
                    <path d="M19.3145759,9.6990641 L18.7052419,9.6990641 C17.6209778,9.6990641 16.7401793,10.5113325 16.7401793,11.5955965 C16.7401793,12.476395 17.0111125,13.4921289 18.1633755,13.4921289 C19.1796406,13.4921289 19.3825749,12.6798605 19.3825749,11.8659985 L19.3825749,9.83346822 C19.3820436,9.83346822 19.4500425,9.6990641 19.3145759,9.6990641 L19.3145759,9.6990641 Z M50.1871485,19.5902509 L48.0531511,19.5902509 C46.5215817,19.4075038 45.1950715,18.8226068 45.1950715,17.4217228 C45.1950715,16.4059889 46.346272,15.6611882 47.2956007,15.5251904 C47.2956007,15.5251904 47.5665339,15.4577227 47.2956007,15.4577227 C46.9566685,15.3891926 45.1276038,15.2542572 44.5177385,15.3891926 C44.5177385,15.3891926 44.3822719,15.3891926 44.314273,15.2542572 C44.2468053,15.1182594 43.9078732,14.1699932 43.8398742,14.1025255 C43.7724066,13.9665276 43.9073419,13.89906 43.9073419,13.89906 C45.2625392,13.6955944 46.4817386,13.0182614 47.023605,12.8147959 C47.3625371,12.7473282 47.023605,12.6798605 47.023605,12.6798605 C45.1270726,12.3403972 43.2294777,11.0537301 43.2294777,8.81773434 C43.2294777,5.63347237 45.8718732,4.21080745 48.378271,4.21080745 C49.5300027,4.21080745 50.2073357,4.41427297 50.817201,4.48174065 C50.817201,4.48174065 50.8846687,4.54973957 50.9531989,4.41427297 C50.9531989,4.21080745 51.1556019,3.66894104 51.1556019,3.66894104 C51.4275976,2.85614144 51.8329349,2.51720932 53.0531968,2.51720932 C53.32413,2.51720932 53.5950632,2.51720932 53.7979975,2.58520824 C53.7979975,2.58520824 53.9339953,2.51720932 53.9339953,2.72067484 C53.8654651,2.78814252 53.4585341,4.41427297 53.4585341,4.48174065 C53.3910664,4.68520617 53.3235987,4.54973957 53.3235987,4.54973957 C53.1201332,4.41427297 53.0526655,4.34627405 52.5787981,4.41427297 C52.3068024,4.41427297 52.171867,4.61720725 52.171867,4.88867169 C52.171867,5.36307041 54.3393326,6.04040341 54.3393326,8.61480006 C54.3393326,12.0699952 51.1550707,12.8147959 48.3777397,13.4926602 C48.3777397,13.4926602 48.1068065,13.5601278 48.3777397,13.5601278 C50.2068045,13.7635934 54.0009317,14.2374608 54.0009317,16.6094544 C54.0025255,18.6063915 51.7744983,19.3761605 50.1871485,19.5902509 Z M23.6505696,14.1025255 L24.192436,14.1025255 C24.3279026,14.1025255 24.3279026,14.2374608 24.3279026,14.2374608 L24.3279026,15.3217249 C24.3279026,15.5251904 24.1249684,15.4577227 24.1249684,15.4577227 L19.7889747,15.4577227 C19.7889747,15.4577227 19.7209757,15.4577227 19.7209757,15.3217249 C19.6535081,15.0507917 19.5180415,14.7798585 19.5180415,14.5769242 C19.4505738,14.305991 19.3145759,14.5769242 19.3145759,14.5769242 C18.4337774,15.2542572 17.4175123,15.7961236 16.1983129,15.7961236 C14.1657826,15.7961236 12.6076511,14.5094565 12.6076511,12.4083961 C12.6076511,9.83399946 14.2337816,8.41186578 16.2663118,8.41186578 L19.3825749,8.27639918 L19.3825749,8.14146382 L19.3825749,7.8025317 C19.3825749,6.92173318 18.9081761,6.51533337 17.891911,6.51533337 C16.6047127,6.51533337 15.9953786,6.9897321 15.3855133,7.73453278 C15.3855133,7.73453278 15.3855133,7.80200046 15.2500467,7.80200046 C15.1145801,7.73453278 14.0308473,7.32760173 14.0308473,7.32760173 C14.0308473,7.32760173 13.8953807,7.32760173 13.9633796,7.19213513 C14.0313785,7.05666853 15.3860445,3.80493889 15.3860445,3.80493889 C15.3860445,3.80493889 15.3860445,3.66947229 15.4535122,3.73747121 C15.6564465,3.80493889 16.4697773,4.07640333 16.6727116,4.07640333 C16.8081782,4.14387101 16.7401793,4.27933761 16.7401793,4.27933761 L16.6047127,4.55027081 C16.537245,4.82120401 16.6721804,4.68573741 16.6721804,4.68573741 C17.5529789,4.34680529 18.4337774,4.21133869 19.3145759,4.21133869 C21.8889726,4.21133869 23.583102,5.29560273 23.583102,7.93746706 L23.583102,13.8995912 C23.5825707,13.89906 23.5825707,14.1025255 23.6505696,14.1025255 L23.6505696,14.1025255 Z M23.9215028,5.02360705 C25.6825686,4.54920833 27.1732325,3.3974766 27.9185644,1.77134616 C27.9185644,1.77134616 27.9185644,1.70387848 28.054031,1.70387848 C28.1894976,1.70387848 29.0702961,1.907344 29.2057627,1.907344 C29.3412293,1.97481168 29.2732304,2.0428106 29.2732304,2.0428106 C29.2057627,2.58520824 29.1377638,3.19454232 29.1377638,3.66894104 L29.1377638,4.48174065 C29.1377638,4.61720725 29.2732304,4.54973957 29.2732304,4.54973957 L31.1022951,4.54973957 C31.2377617,4.54973957 31.1697628,4.68520617 31.1697628,4.68520617 C31.1697628,4.68520617 30.8988296,6.04040341 30.8988296,6.17587001 C30.8313619,6.31133661 30.763363,6.31133661 30.763363,6.31133661 L29.2726992,6.31133661 C29.1367013,6.31133661 29.1372326,6.37933553 29.1372326,6.37933553 L29.1372326,12.6803918 C29.1372326,13.4251925 29.7470979,13.5601278 30.08603,13.5601278 C30.4244309,13.5601278 30.4924298,13.5601278 30.763363,13.4251925 C30.763363,13.4251925 30.8988296,13.2891946 30.8988296,13.4251925 C30.9662973,13.5601278 31.3052294,14.4409264 31.3732283,14.5769242 C31.440696,14.6443919 31.3052294,14.7118596 31.3052294,14.7118596 C29.8825645,15.7286559 29.7470979,15.7961236 27.8500342,15.7961236 C25.7500363,15.7961236 25.0047044,14.7803897 25.0047044,12.8838573 L25.0047044,6.37880429 C25.0047044,6.37880429 25.0047044,6.31080537 24.8692378,6.31080537 L23.9209716,6.31080537 C23.9209716,6.31080537 23.8529727,6.31080537 23.8529727,6.17533877 L23.8529727,5.15907365 C23.8535039,5.09160597 23.9215028,5.02360705 23.9215028,5.02360705 L23.9215028,5.02360705 Z M54.8147938,9.96946606 C54.8147938,6.44627197 57.592656,4.21080745 61.2518479,4.21080745 C64.9094461,4.21080745 67.7553072,6.44627197 67.7553072,9.96946606 C67.7553072,13.6281268 64.9094461,15.7955924 61.2518479,15.7955924 C57.5921248,15.7955924 54.8147938,13.6281268 54.8147938,9.96946606 L54.8147938,9.96946606 Z M59.0158522,8.41133454 C59.0158522,10.037465 59.6931852,14.1025255 61.9966486,14.1025255 C63.215848,14.1025255 63.5542489,12.8147959 63.5542489,11.5955965 C63.5542489,9.96946606 62.8779784,5.90493669 60.5059848,5.90493669 C59.0158522,5.90440557 59.0158522,7.59800369 59.0158522,8.41133454 Z M80.6278217,15.4571915 L74.9366308,15.4571915 C74.9366308,15.4571915 74.8691631,15.4571915 74.8691631,15.3886613 L74.8691631,14.2369296 C74.8691631,14.1019942 75.0040984,14.1019942 75.0040984,14.1019942 L75.6814314,14.1019942 C75.7499616,14.1019942 75.7499616,14.0345266 75.7499616,14.0345266 L75.7499616,7.86946814 C75.7499616,7.19213513 75.1400963,6.92067069 74.5296997,6.92067069 C73.784899,6.92067069 73.2430326,7.25960281 72.700635,7.73347029 C72.700635,7.73347029 72.6331673,7.80093797 72.6331673,7.86893689 L72.6331673,14.0345266 C72.6331673,14.0345266 72.6331673,14.1019942 72.700635,14.1019942 L73.4464982,14.1019942 C73.4464982,14.1019942 73.5139658,14.1019942 73.5139658,14.2369296 L73.5139658,15.3886613 C73.5139658,15.4571915 73.4464982,15.4571915 73.4464982,15.4571915 L67.7553072,15.4571915 C67.7553072,15.4571915 67.6878395,15.5246592 67.6878395,15.3211936 L67.6878395,14.2369296 C67.6878395,14.1019942 67.7553072,14.1019942 67.7553072,14.1019942 L68.3641101,14.1019942 C68.5001079,14.1019942 68.4326402,14.0345266 68.4326402,14.0345266 L68.4326402,6.78520409 C68.4326402,6.78520409 68.5001079,6.64973749 68.3641101,6.64973749 L67.7553072,6.85320301 C67.7553072,6.85320301 67.6878395,6.92067069 67.6878395,6.78573533 L67.6878395,5.63400361 C67.6878395,5.49853701 67.7553072,5.56653593 67.7553072,5.56653593 L72.5656996,4.27933761 C72.5656996,4.27933761 72.700635,4.21186993 72.700635,4.34680529 L72.700635,5.90546805 C72.700635,6.10840233 72.7691652,5.97293573 72.7691652,5.97293573 C73.9208969,5.09213721 75.0726286,4.21133869 76.6302289,4.21133869 C79.5435577,4.21133869 79.9504887,6.17587001 79.9504887,7.39560066 L79.9504887,14.035589 C79.9504887,14.035589 79.883021,14.1030567 80.0179564,14.1030567 L80.6278217,14.1030567 C80.6278217,14.1030567 80.6952894,14.1030567 80.6952894,14.2379921 L80.6952894,15.3222561 C80.6952894,15.5246592 80.6278217,15.4571915 80.6278217,15.4571915 L80.6278217,15.4571915 Z M86.3864803,4.27827513 L81.5760879,5.56547345 C81.5760879,5.56547345 81.5086202,5.56547345 81.5086202,5.70094005 L81.5086202,6.78520409 C81.5086202,6.92067069 81.6435556,6.85267177 81.6435556,6.85267177 C81.6435556,6.85267177 81.9830189,6.78520409 82.2534209,6.71720517 C82.3894187,6.71720517 82.3208886,6.85267177 82.3208886,6.92013945 L82.3208886,14.0345266 C82.3208886,14.0345266 82.3894187,14.1019942 82.2534209,14.1019942 L81.5760879,14.1019942 C81.5760879,14.1019942 81.4400901,14.1019942 81.4400901,14.2369296 L81.4400901,15.3886613 C81.4400901,15.5246592 81.5760879,15.4571915 81.5760879,15.4571915 L87.1998112,15.4571915 C87.3347465,15.4571915 87.2672788,15.3211936 87.2672788,15.3211936 L87.2672788,14.2369296 C87.2672788,14.1019942 87.131281,14.1019942 87.131281,14.1019942 L86.5894146,14.1019942 C86.4534168,14.1019942 86.5219469,14.0345266 86.5219469,14.0345266 L86.5219469,4.3457428 C86.5219469,4.2102762 86.3864803,4.27827513 86.3864803,4.27827513 L86.3864803,4.27827513 Z M84.6928822,0.891078877 C85.6411484,0.891078877 86.72435,1.16201208 86.72435,2.3137438 C86.72435,3.66894104 84.8963477,4.21080745 83.744616,4.21080745 C82.7952873,4.21080745 82.1859532,3.73640872 82.1859532,2.78814252 C82.1859532,1.70387848 83.6760858,0.891078877 84.6928822,0.891078877 Z M38.1486833,9.6990641 L37.6062857,9.6990641 C36.4545539,9.6990641 35.6417543,10.5113325 35.6417543,11.5955965 C35.6417543,12.476395 35.9126875,13.4921289 36.9969516,13.4921289 C38.0812156,13.4921289 38.2841499,12.6798605 38.2841499,11.8659985 L38.2841499,9.83346822 C38.2841499,9.83346822 38.2841499,9.6990641 38.1486833,9.6990641 L38.1486833,9.6990641 Z M42.5526759,14.1025255 L43.0270746,14.1025255 C43.2300089,14.1025255 43.2300089,14.2374608 43.2300089,14.2374608 L43.2300089,15.3217249 C43.2300089,15.5251904 43.0270746,15.4577227 43.0270746,15.4577227 L38.691081,15.4577227 C38.691081,15.4577227 38.623082,15.4577227 38.5556144,15.3217249 C38.4881467,15.0507917 38.4201478,14.7798585 38.4201478,14.5769242 C38.3526801,14.305991 38.2172135,14.5769242 38.2172135,14.5769242 C37.268416,15.2542572 36.3201498,15.7961236 35.1004192,15.7961236 C33.0004213,15.7961236 31.4422897,14.5094565 31.4422897,12.4083961 C31.4422897,9.83399946 33.1358879,8.34386686 35.1684181,8.34386686 L38.2172135,8.27586794 C38.2172135,8.27586794 38.2846812,8.27586794 38.2846812,8.14093258 L38.2846812,7.80200046 C38.2846812,6.92120193 37.8102824,6.51480213 36.7940173,6.51480213 C35.506819,6.51480213 34.8969537,6.98920085 34.2870883,7.73400154 C34.2870883,7.73400154 34.2196207,7.80146921 34.1516217,7.73400154 C34.0161551,7.73400154 32.8644234,7.32760173 32.8644234,7.32760173 C32.8644234,7.32760173 32.7969557,7.32760173 32.8644234,7.19213513 C32.9318911,7.05666853 34.2196207,3.80493889 34.2196207,3.80493889 C34.2196207,3.80493889 34.2196207,3.66947229 34.3550873,3.73747121 C34.4905539,3.80493889 35.3713524,4.07640333 35.506819,4.07640333 C35.6422856,4.14387101 35.5742867,4.27933761 35.5742867,4.27933761 C35.5742867,4.27933761 35.5742867,4.41480421 35.506819,4.55027081 C35.3713524,4.82120401 35.5742867,4.68573741 35.5742867,4.68573741 C36.4550852,4.34680529 37.3358837,4.21133869 38.2166822,4.21133869 C40.7910789,4.21133869 42.4852082,5.29560273 42.4852082,7.93746706 L42.4852082,13.8995912 C42.484677,13.89906 42.4166781,14.1025255 42.5526759,14.1025255 L42.5526759,14.1025255 Z M47.023605,7.12413621 C47.023605,8.34333562 47.700938,11.6630642 49.3950673,11.6630642 C50.2763971,11.6630642 50.6142667,11.2561331 50.6142667,10.1729316 C50.6142667,8.95320094 49.8689348,5.63347237 48.1753367,5.63347237 C47.3625371,5.63347237 47.023605,6.03987217 47.023605,7.12413621 L47.023605,7.12413621 Z M48.785202,15.9990579 C48.5822677,16.2025234 48.4468011,16.9473241 48.4468011,17.4217228 C48.4468011,17.9641204 48.7177343,18.5734545 49.3950673,18.5734545 C49.937465,18.5734545 50.2763971,18.3025213 50.2763971,17.7611862 C50.2763971,16.7443898 49.6660005,16.4059889 48.9211999,15.9321214 C48.9211999,15.9315902 48.8532009,15.9315902 48.785202,15.9990579 L48.785202,15.9990579 Z M93.9742037,9.6990641 L93.4323373,9.6990641 C92.2806055,9.6990641 91.4672747,10.5113325 91.4672747,11.5955965 C91.4672747,12.476395 91.7382079,13.4921289 92.8224719,13.4921289 C93.906736,13.4921289 94.1102015,12.6798605 94.1102015,11.8659985 L94.1102015,9.83346822 C94.1102015,9.83346822 94.1102015,9.6990641 93.9742037,9.6990641 L93.9742037,9.6990641 Z M98.377665,14.1025255 L98.9200627,14.1025255 C99.054998,14.1025255 99.054998,14.2374608 99.054998,14.2374608 L99.054998,15.3217249 C99.054998,15.5251904 98.8515325,15.4577227 98.8515325,15.4577227 L94.5155388,15.4577227 C94.5155388,15.4577227 94.4480711,15.4577227 94.3806035,15.3217249 C94.3131358,15.0507917 94.2446056,14.7798585 94.2446056,14.5769242 C94.1771379,14.305991 94.0411401,14.5769242 94.0411401,14.5769242 C93.0928739,15.2542572 92.1446077,15.7961236 90.9254083,15.7961236 C88.8254104,15.7961236 87.2667476,14.5094565 87.2667476,12.4083961 C87.2667476,9.83399946 88.9603457,8.34386686 90.992876,8.34386686 L94.0411401,8.27586794 C94.0411401,8.27586794 94.1096703,8.27586794 94.1096703,8.14093258 L94.1096703,7.80200046 C94.1096703,6.92120193 93.6352715,6.51480213 92.6184752,6.51480213 C91.3318081,6.51480213 90.7219428,6.98920085 90.1115462,7.73400154 C90.1115462,7.73400154 90.0440785,7.80146921 89.9766108,7.73400154 C89.840613,7.73400154 88.756349,7.32760173 88.756349,7.32760173 C88.756349,7.32760173 88.6214136,7.32760173 88.6888813,7.19213513 C88.756349,7.05666853 90.0440785,3.80493889 90.0440785,3.80493889 C90.0440785,3.80493889 90.0440785,3.66947229 90.1800764,3.73747121 C90.3150117,3.80493889 91.1958102,4.07640333 91.3318081,4.07640333 C91.4672747,4.14280852 91.4672747,4.27827513 91.4672747,4.27827513 L91.3323393,4.54920833 C91.1963415,4.82014153 91.399807,4.68467493 91.399807,4.68467493 C92.2806055,4.3457428 93.1614041,4.2102762 94.0416713,4.2102762 C96.6171305,4.2102762 98.3101973,5.29454025 98.3101973,7.93640457 L98.3101973,13.8985287 C98.3101973,13.89906 98.3101973,14.1025255 98.377665,14.1025255 Z M5.01939654,6.85320301 L5.01939654,12.3409284 C5.01939654,13.2891946 5.35832866,14.1025255 6.44206147,14.1025255 C7.79725871,14.1025255 8.40712403,13.2891946 8.40712403,10.7822657 C8.40712403,6.78573533 6.37459379,6.58226981 5.69726079,6.58226981 L5.15486314,6.64973749 C5.15486314,6.64973749 5.01939654,6.71773641 5.01939654,6.85320301 L5.01939654,6.85320301 Z M5.08686422,5.22707257 C6.10312934,4.61720725 6.84846127,4.21080745 7.86472639,4.21080745 C10.507122,4.21080745 12.6071199,6.37880429 12.6071199,9.56306626 C12.6071199,12.6798605 10.6425886,15.7955924 7.25486107,15.7955924 C6.57752807,15.7955924 5.69672954,15.7281247 5.08686422,15.3886613 C5.08686422,15.3886613 5.01939654,15.3886613 5.01939654,15.4571915 L5.01939654,17.4211916 C5.01939654,17.4211916 5.01939654,17.5571894 5.15486314,17.5571894 L6.37406255,17.5571894 C6.37406255,17.5571894 6.50952915,17.5571894 6.50952915,17.6931872 L6.50952915,18.7763888 C6.50952915,18.844919 6.37406255,18.9123866 6.37406255,18.9123866 L0.20900413,18.9123866 C0.20900413,18.9123866 0.0055386084,18.9123866 0.0055386084,18.7763888 L0.0055386084,18.765764 L0.0055386084,18.7551391 L0.0055386084,18.7439831 L0.0055386084,18.732827 L0.0055386084,18.7206084 L0.0055386084,18.7073274 L0.0055386084,18.6940464 L0.0055386084,18.6807653 L0.0055386084,18.6664218 L0.0055386084,18.6510158 L0.0055386084,18.6356098 L0.0055386084,18.6191413 L0.0055386084,18.6026728 L0.0055386084,18.5862043 L0.0055386084,18.5686733 L0.0055386084,18.5522049 L0.0055386084,18.5336114 L0.0055386084,18.515018 L0.0055386084,18.4964245 L0.0055386084,18.477831 L0.0055386084,18.4581751 L0.0055386084,18.4395816 L0.0055386084,18.4188632 L0.0055386084,18.4002698 L0.0055386084,18.3795513 L0.0055386084,18.3598954 L0.0055386084,18.339177 L0.0055386084,18.3195211 L0.0055386084,18.2988026 L0.0055386084,18.2780842 L0.0055386084,18.2573658 L0.0055386084,18.2377099 L0.0055386084,18.2169914 L0.0055386084,18.196273 L0.0055386084,18.1744921 L0.0055386084,18.1548362 L0.0055386084,18.1341177 L0.0055386084,18.1133993 L0.0055386084,18.0937434 L0.0055386084,18.0740874 L0.0055386084,18.0544315 L0.0055386084,18.0347756 L0.0055386084,18.0151196 L0.0055386084,17.9954637 L0.0055386084,17.9768702 L0.0055386084,17.9582768 L0.0055386084,17.9396833 L0.0055386084,17.9232148 L0.0055386084,17.9046214 L0.0055386084,17.8881529 L0.0055386084,17.8706219 L0.0055386084,17.8541534 L0.0055386084,17.8387474 L0.0055386084,17.8233414 L0.0055386084,17.8079354 L0.0055386084,17.7935919 L0.0055386084,17.7792484 L0.0055386084,17.7659673 L0.0055386084,17.7537488 L0.0055386084,17.7415302 L0.0055386084,17.7293117 L0.0055386084,17.7186868 L0.0055386084,17.708062 L0.0055386084,17.6984997 C0.0055386084,17.5625018 0.141005209,17.5625018 0.141005209,17.5625018 L0.68287161,17.5625018 C0.81833821,17.5625018 0.81833821,17.426504 0.81833821,17.426504 L0.81833821,6.79051651 C0.81833821,6.65504991 0.68287161,6.72304883 0.68287161,6.72304883 L0.141005209,6.85851543 C0.141005209,6.85851543 0.0055386084,6.85851543 0.0055386084,6.72304883 L0.0055386084,6.71561145 L0.0055386084,6.70764282 L0.0055386084,6.69861172 L0.0055386084,6.68904937 L0.0055386084,6.67842454 L0.0055386084,6.66726846 L0.0055386084,6.65504991 L0.0055386084,6.64230011 L0.0055386084,6.62795659 L0.0055386084,6.61414431 L0.0055386084,6.5987383 L0.0055386084,6.5833323 L0.0055386084,6.56686381 L0.0055386084,6.54986408 L0.0055386084,6.53233311 L0.0055386084,6.51480213 L0.0055386084,6.49620868 L0.0055386084,6.47761522 L0.0055386084,6.45795929 L0.0055386084,6.43830335 L0.0055386084,6.41758493 L0.0055386084,6.39739775 L0.0055386084,6.37667933 L0.0055386084,6.35542966 L0.0055386084,6.33418 L0.0055386084,6.3123991 L0.0055386084,6.29061819 L0.0055386084,6.26883729 L0.0055386084,6.24652514 L0.0055386084,6.22474424 L0.0055386084,6.20243209 L0.0055386084,6.18065119 L0.0055386084,6.15833904 L0.0055386084,6.13602689 L0.0055386084,6.11371475 L0.0055386084,6.09193384 L0.0055386084,6.0696217 L0.0055386084,6.04784079 L0.0055386084,6.02605989 L0.0055386084,6.00481023 L0.0055386084,5.98356056 L0.0055386084,5.96284214 L0.0055386084,5.94212372 L0.0055386084,5.92193654 L0.0055386084,5.90174936 L0.0055386084,5.88262467 L0.0055386084,5.86349997 L0.0055386084,5.84543776 L0.0055386084,5.8268443 L0.0055386084,5.80931333 L0.0055386084,5.7923136 L0.0055386084,5.77637635 L0.0055386084,5.7604391 L0.0055386084,5.74556434 L0.0055386084,5.73122082 L0.0055386084,5.71793978 L0.0055386084,5.70465874 L0.0055386084,5.69297143 L0.0055386084,5.68181535 L0.0055386084,5.67119052 L0.0055386084,5.66109693 L0.0055386084,5.65259707 L0.0055386084,5.64515968 L0.0055386084,5.63825354 C0.0055386084,5.50278694 0.141005209,5.50278694 0.141005209,5.50278694 L4.8833987,4.28358754 C4.8833987,4.28358754 5.0188653,4.21611986 5.0188653,4.35105522 L5.0188653,5.16385482 C5.01939654,5.29454025 5.08686422,5.22707257 5.08686422,5.22707257 L5.08686422,5.22707257 Z M96.4136649,1.5009442 C96.4136649,0.687613356 97.0909979,0.0102803544 97.9037975,0.0102803544 C98.7171284,0.0102803544 99.3949926,0.687613356 99.3949926,1.5009442 C99.3949926,2.38174272 98.7176596,3.05907572 97.9037975,3.05907572 C97.0909979,3.05907572 96.4136649,2.38174272 96.4136649,1.5009442 Z M99.1909959,1.5009442 C99.1909959,0.823611198 98.6485982,0.213745876 97.9032663,0.213745876 C97.1579344,0.213745876 96.5480691,0.823611198 96.5480691,1.5009442 C96.5480691,2.24627612 97.1579344,2.8556102 97.9032663,2.8556102 C98.6485982,2.8556102 99.1909959,2.24627612 99.1909959,1.5009442 Z M98.6485982,2.38174272 L98.377665,2.38174272 L97.9032663,1.56894312 L97.5648654,1.56894312 L97.5648654,2.38174272 L97.3613999,2.38174272 L97.3613999,0.688144597 L98.0387329,0.688144597 C98.1736683,0.688144597 98.3771338,0.688144597 98.4456639,0.756143518 C98.5805993,0.823611198 98.648067,1.02707672 98.648067,1.16254332 C98.648067,1.43400776 98.4456639,1.56947436 98.1062006,1.56947436 L98.6485982,2.38174272 L98.6485982,2.38174272 Z M97.8357986,1.43294528 C98.1067318,1.43294528 98.4456639,1.50041296 98.4456639,1.16148084 C98.4456639,0.890547635 98.2421984,0.823079956 98.0387329,0.823079956 L97.5643342,0.823079956 L97.5643342,1.43294528 L97.8357986,1.43294528 Z" id="Shape"></path>
                </g>
            </g>
        </g>
    </g>
</svg>