<?xml version="1.0" encoding="UTF-8"?>
<svg width="79px" height="37px" viewBox="0 0 79 37" version="1.1" xmlns="http://www.w3.org/2000/svg" xmlns:xlink="http://www.w3.org/1999/xlink">
    <title>the-north-face-1</title>
    <g id="Home" stroke="none" stroke-width="1" fill="none" fill-rule="evenodd">
        <g transform="translate(-160.000000, -1184.000000)" fill="#000000" fill-rule="nonzero" id="logos">
            <g transform="translate(160.000000, 1184.000000)">
                <g id="the-north-face-1">
                    <path d="M50.7837214,2.06484871 L50.7837214,0.0375046694 L42.6732827,0.0375046694 L42.6732827,11.168771 L50.7837214,11.168771 L50.7837214,9.33268584 L44.9301374,9.33268584 L44.9301374,6.31079567 L50.0564064,6.31079567 L50.0564064,4.3217034 L44.9301374,4.3217034 L44.9301374,2.06484871 L50.7837214,2.06484871 Z M48.5268667,12.3163242 L48.5268667,16.600523 L44.0885983,16.600523 L44.0885983,12.3163242 L41.7945544,12.3163242 L41.7945544,23.4098701 L44.0885983,23.4098701 L44.0885983,18.4366081 L48.5268667,18.4366081 L48.5268667,23.4098701 L50.7837214,23.4098701 L50.7837214,12.3163242 L48.5268667,12.3163242 Z M50.7837214,26.545453 L50.7837214,24.5574233 L42.6732827,24.5574233 L42.6732827,35.8406342 L50.7837214,35.8406342 L50.7837214,33.8143527 L44.9301374,33.8143527 L44.9301374,30.830183 L50.0564064,30.830183 L50.0564064,28.9946291 L44.9301374,28.9946291 L44.9301374,26.545453 L50.7837214,26.545453 L50.7837214,26.545453 Z M41.3732536,0.0375046694 L39.116399,0.0375046694 L39.116399,4.3217034 L34.6791931,4.3217034 L34.6791931,0.0375046694 L32.4223384,0.0375046694 L32.4223384,11.168771 L34.6791931,11.168771 L34.6791931,6.19604034 L39.116399,6.19604034 L39.116399,11.168771 L41.3732536,11.168771 L41.3732536,0.0375046694 Z M22.7063877,0.0375046694 L22.7063877,2.06484871 L26.1490474,2.06484871 L26.1490474,11.168771 L28.4059021,11.168771 L28.4059021,2.06484871 L31.8485618,2.06484871 L31.8485618,0.0375046694 L22.7063877,0.0375046694 Z M15.5915577,12.01031 C12.0341427,12.01031 10.1598058,14.0376541 10.1598058,17.8628315 C10.1598058,21.8792678 12.0341427,23.8683601 15.5915577,23.8683601 C19.1489727,23.8683601 20.9850579,21.8792678 20.9850579,17.8628315 C20.9850579,14.0376541 19.1489727,12.01031 15.5915577,12.01031 L15.5915577,12.01031 Z M12.6079193,17.8628315 C12.6079193,15.2999626 13.6024654,14.0376541 15.5915577,14.0376541 C17.7336571,14.0376541 18.7282032,15.2999626 18.7282032,17.8628315 C18.7282032,20.5792388 17.7336571,21.8792678 15.5915577,21.8792678 C13.6024654,21.8792678 12.6079193,20.5792388 12.6079193,17.8628315 L12.6079193,17.8628315 Z M6.90840493,12.3163242 L6.90840493,20.157938 L2.4711991,12.3163242 L0.0613373179,12.3163242 L0.0613373179,23.4098701 L2.20343668,23.4098701 L2.20343668,15.6059768 L6.75539783,23.4098701 L9.16525962,23.4098701 L9.16525962,12.3163242 L6.90840493,12.3163242 Z M17.4276429,29.147105 L17.4276429,26.545453 L23.1271573,26.545453 L23.1271573,24.5574233 L15.1707882,24.5574233 L15.1707882,35.8406342 L17.4276429,35.8406342 L17.4276429,31.1361972 L22.4386253,31.1361972 L22.4386253,29.147105 L17.4276429,29.147105 Z M40.9530154,14.3054165 L40.9530154,12.3163242 L31.8485618,12.3163242 L31.8485618,14.3054165 L35.2529697,14.3054165 L35.2529697,23.4098701 L37.5480762,23.4098701 L37.5480762,14.3054165 L40.9530154,14.3054165 Z M26.8375794,19.1639231 C27.5643631,19.1639231 28.1381397,19.2781472 28.4059021,19.5841614 L28.8266716,23.4098701 L31.3895405,23.4098701 L31.3895405,23.1421077 C31.1217781,22.9885693 30.968771,22.3005686 30.968771,20.999477 C30.968771,19.4316856 30.3949944,18.5896152 29.5534554,18.1688457 C30.7010086,17.7098244 31.2747852,16.8682854 31.2747852,15.4529697 C31.2747852,13.4638775 30.127232,12.3163242 27.7173702,12.3163242 L22.1326111,12.3163242 L22.1326111,23.4098701 L24.4277176,23.4098701 L24.4277176,19.1639231 L26.8375794,19.1639231 L26.8375794,19.1639231 Z M24.4277176,17.2890549 L24.4277176,14.3054165 L27.2583489,14.3054165 C28.4059021,14.3054165 28.9796787,14.726186 28.9796787,15.7207322 C28.9796787,16.7152783 28.4059021,17.2890549 27.1435936,17.2890549 L24.4277176,17.2890549 Z M28.4059021,24.5574233 L25.6900261,24.5574233 L21.7118416,35.8406342 L24.1217034,35.8406342 L25.0014942,33.3930519 L29.1326858,33.3930519 L29.8212178,35.8406342 L32.2693313,35.8406342 L28.4059021,24.5574233 L28.4059021,24.5574233 Z M26.9905865,27.1192297 L28.4059021,31.557498 L25.5752708,31.557498 L26.9905865,27.1192297 Z M39.5376997,28.2667829 L41.7945544,28.2667829 C41.6792678,27.272768 41.3732536,26.431229 40.6841904,25.703914 C39.6901756,24.862375 38.5426223,24.2885983 36.9742996,24.2885983 C35.4059768,24.2885983 34.2584236,24.862375 33.2638775,25.8574524 C32.4223384,26.8514672 31.8485618,28.2667829 31.8485618,30.1416511 C31.8485618,34.1198356 33.5316399,36.1078654 36.8212925,36.1078654 C39.6901756,36.1078654 41.257967,34.6925497 41.7945544,31.977205 L39.5376997,31.977205 C39.2316856,33.2772341 38.2366081,33.9662973 36.9742996,33.9662973 C35.0999626,33.9662973 34.2584236,32.70452 34.2584236,30.2558752 C34.2584236,27.5787822 35.0999626,26.2776906 36.9742996,26.2776906 C38.2366081,26.2776906 38.9639231,27.0050056 39.5376997,28.2667829 L39.5376997,28.2667829 Z M11.1926037,35.6881584 C11.5751214,35.6881584 11.8811356,35.53462 12.1111775,35.3438924 C12.3024364,35.1143818 12.4549122,34.8083676 12.4549122,34.3881293 C12.4549122,33.9285768 12.3019051,33.6225626 12.1111775,33.4313037 C11.8816669,33.2405761 11.5756527,33.1252895 11.1926037,33.1252895 L11.1543519,33.1252895 C10.6953306,33.1252895 10.3893164,33.2405761 10.1980575,33.4313037 C10.0073299,33.6220313 9.89204333,33.9285768 9.89204333,34.3881293 L9.89204333,34.4253186 C9.89204333,34.8083676 10.0067987,35.1143818 10.1980575,35.3438924 C10.3893164,35.53462 10.6958619,35.6881584 11.1543519,35.6881584 L11.1926037,35.6881584 Z M11.1543519,35.9941882 C10.618827,35.9941882 10.2363093,35.803445 9.96854688,35.53462 C9.70078446,35.2668576 9.58602914,34.8848711 9.58602914,34.4253186 L9.58602914,34.3881293 C9.58602914,33.8515419 9.70078446,33.4695555 9.96854688,33.2023243 C10.2363093,32.9345619 10.618827,32.8192753 11.1543519,32.8192753 L11.1926037,32.8192753 C11.651625,32.8192753 12.0341427,32.9345619 12.3019051,33.2023243 C12.5696675,33.4700867 12.7609264,33.8520732 12.7609264,34.3881293 C12.7609264,34.8854024 12.5696675,35.2668576 12.3019051,35.53462 C12.0087798,35.8304447 11.6090544,35.9960397 11.1926037,35.9941882 L11.1543519,35.9941882 L11.1543519,35.9941882 Z M11.307359,34.234591 L11.3456108,34.234591 C11.4986179,34.234591 11.5751214,34.1575561 11.5751214,33.9668285 L11.5751214,33.9285768 C11.5751214,33.9285768 11.5368696,33.9285768 11.5368696,33.890325 C11.4986179,33.8520732 11.4221143,33.8520732 11.307359,33.8520732 L10.8865895,33.8520732 L10.8865895,34.2351222 L11.307359,34.2351222 L11.307359,34.234591 L11.307359,34.234591 Z M11.5751214,34.5023534 L11.8811356,34.8854024 C11.9193874,34.9613747 11.8811356,35.0378782 11.8428838,35.07613 C11.7663803,35.1531648 11.651625,35.1143818 11.6133732,35.07613 L11.2308554,34.5406052 L10.8865895,34.5406052 L10.8865895,34.9608434 C10.8865895,35.0378782 10.8100859,35.1143818 10.7335824,35.1143818 C10.6570788,35.1143818 10.5805753,35.0373469 10.5805753,34.9608434 L10.5805753,33.6990661 C10.5805753,33.6220313 10.6570788,33.5465903 10.7335824,33.5465903 L11.3456108,33.5465903 C11.4986179,33.5465903 11.651625,33.5837795 11.7281285,33.6608143 C11.7663803,33.6990661 11.8046321,33.6990661 11.8046321,33.7378492 C11.8811356,33.814884 11.8811356,33.890325 11.8811356,33.9673598 C11.8811356,34.2728427 11.8046321,34.4253186 11.5751214,34.5023534 Z M52.3515129,0.0375046694 C59.4668742,0.0375046694 65.6248786,2.63862533 70.5976093,7.611356 C75.723347,12.7370938 78.2867472,18.8573777 78.2867472,26.0099282 L78.2867472,35.8406342 L67.8822646,35.8406342 L67.8822646,25.703914 C67.8822646,21.726792 66.4669489,18.283601 63.5980658,15.4529697 C62.9090026,14.726186 62.1827502,14.1524094 61.3412111,13.5786328 C59.0461047,12.01031 56.3302287,11.3217781 53.4995974,11.3217781 L52.3520442,11.3217781 L52.3520442,0.0375046694 L52.3515129,0.0375046694 Z M66.8866559,35.8406342 L58.7772797,35.8406342 L58.7772797,27.9990205 C58.7772797,26.6989914 58.3570415,25.703914 57.4772507,24.862375 C56.6357116,23.9836467 55.4881584,23.5623459 54.3406052,23.5623459 L52.3515129,23.5623459 L52.3515129,12.3163242 L53.4990661,12.3163242 C56.4821732,12.3163242 59.0450421,13.1578633 61.3406799,14.8791931 C61.9144565,15.1469555 62.4882331,15.7207322 62.9084713,16.1415017 C65.6248786,18.8579089 66.8866559,21.9945544 66.8866559,25.7044453 L66.8866559,35.8406342 L66.8866559,35.8406342 Z M57.7832648,35.8406342 L52.3509816,35.8406342 L52.3509816,24.5574233 L54.3406052,24.5574233 C55.220396,24.5574233 56.061935,24.862375 56.7881874,25.5514382 C57.3619641,26.1252148 57.7832648,27.0050056 57.7832648,27.9990205 L57.7832648,35.8406342 L57.7832648,35.8406342 Z" id="Shape"></path>
                </g>
            </g>
        </g>
    </g>
</svg>