<?xml version="1.0" encoding="UTF-8"?>
<svg width="93px" height="10px" viewBox="0 0 93 10" version="1.1" xmlns="http://www.w3.org/2000/svg" xmlns:xlink="http://www.w3.org/1999/xlink">
    <title>yeti</title>
    <g id="Home" stroke="none" stroke-width="1" fill="none" fill-rule="evenodd">
        <g transform="translate(-452.000000, -1198.000000)" fill="#000000" fill-rule="nonzero" id="logos">
            <g transform="translate(160.000000, 1184.000000)">
                <g id="yeti" transform="translate(292.000000, 14.000000)">
                    <path d="M0,7.99360578e-15 L5.11016342,6.0717852 L3.1792339,10 L12.4909814,10 L14.5346234,6.30922002 L28.1611967,7.99360578e-15 L18.0551699,7.99360578e-15 L12.0364272,3.09552868 L10.2197977,7.99360578e-15 L0,7.99360578e-15 Z M52.5753636,0 L30.7731638,0 L24.7544211,10 L46.4433792,10 L47.9197544,7.61899479 L35.6552564,7.61899479 L36.450594,6.19050261 L46.5566208,6.19050261 L47.9197544,3.80949739 L37.9264401,3.80949739 L38.7217778,2.14301564 L50.8714466,2.14301564 L52.5753636,0 L52.5753636,0 Z M80.0549935,7.99360578e-15 L55.0735599,7.99360578e-15 L53.5966554,2.50027738 L60.7509901,2.50027738 L57.003431,9.88072784 L66.3151786,9.88072784 L70.857546,2.50027738 L78.3516057,2.50027738 L80.0549935,7.99360578e-15 L80.0549935,7.99360578e-15 Z M93,7.99360578e-15 L83.3479983,7.99360578e-15 L77.3297847,10 L86.9817864,10 L93,7.99360578e-15 Z" id="Shape"></path>
                </g>
            </g>
        </g>
    </g>
</svg>