<svg width="33" height="34" viewBox="0 0 33 34" fill="none" xmlns="http://www.w3.org/2000/svg">
<path d="M11.0377 26.3898C11.0377 26.5227 10.8847 26.6289 10.6917 26.6289C10.4722 26.6488 10.3192 26.5426 10.3192 26.3898C10.3192 26.257 10.4722 26.1508 10.6651 26.1508C10.8647 26.1309 11.0377 26.2371 11.0377 26.3898ZM8.96855 26.091C8.92198 26.2238 9.05504 26.3766 9.25464 26.4164C9.42762 26.4828 9.62722 26.4164 9.66714 26.2836C9.70706 26.1508 9.58065 25.998 9.38105 25.9383C9.20807 25.8918 9.01512 25.9582 8.96855 26.091ZM11.9093 25.9781C11.7163 26.0246 11.5833 26.1508 11.6032 26.3035C11.6232 26.4363 11.7962 26.5227 11.9958 26.4762C12.1887 26.4297 12.3218 26.3035 12.3018 26.1707C12.2819 26.0445 12.1022 25.9582 11.9093 25.9781ZM16.2871 0.53125C7.05907 0.53125 0 7.52383 0 16.7344C0 24.0988 4.64395 30.4008 11.2772 32.6188C12.1288 32.7715 12.4282 32.2469 12.4282 31.8152C12.4282 31.4035 12.4083 29.1324 12.4083 27.7379C12.4083 27.7379 7.75101 28.734 6.77298 25.759C6.77298 25.759 6.01452 23.8266 4.92339 23.3285C4.92339 23.3285 3.3998 22.2859 5.02984 22.3059C5.02984 22.3059 6.68649 22.4387 7.59798 24.0191C9.05504 26.5824 11.4968 25.8453 12.4482 25.407C12.6012 24.3445 13.0337 23.6074 13.5127 23.1691C9.79355 22.7574 6.04113 22.2195 6.04113 15.8312C6.04113 14.0051 6.54677 13.0887 7.61129 11.9199C7.43831 11.4883 6.87278 9.70859 7.78427 7.41094C9.1748 6.9793 12.375 9.20391 12.375 9.20391C13.7056 8.83203 15.1361 8.63945 16.5532 8.63945C17.9704 8.63945 19.4008 8.83203 20.7315 9.20391C20.7315 9.20391 23.9317 6.97266 25.3222 7.41094C26.2337 9.71523 25.6681 11.4883 25.4952 11.9199C26.5597 13.0953 27.2117 14.0117 27.2117 15.8312C27.2117 22.2395 23.2929 22.7508 19.5738 23.1691C20.1859 23.6938 20.7048 24.6898 20.7048 26.2504C20.7048 28.4883 20.6849 31.2574 20.6849 31.802C20.6849 32.2336 20.9909 32.7582 21.8359 32.6055C28.4891 30.4008 33 24.0988 33 16.7344C33 7.52383 25.5151 0.53125 16.2871 0.53125ZM6.46694 23.4348C6.38044 23.5012 6.4004 23.6539 6.51351 23.7801C6.61996 23.8863 6.77298 23.9328 6.85948 23.8465C6.94597 23.7801 6.92601 23.6273 6.8129 23.5012C6.70645 23.3949 6.55343 23.3484 6.46694 23.4348ZM5.74839 22.8969C5.70182 22.9832 5.76835 23.0895 5.90141 23.1559C6.00786 23.2223 6.14093 23.2023 6.1875 23.1094C6.23407 23.023 6.16754 22.9168 6.03448 22.8504C5.90141 22.8105 5.79496 22.8305 5.74839 22.8969ZM7.90403 25.2609C7.79758 25.3473 7.8375 25.5465 7.99052 25.6727C8.14355 25.8254 8.33649 25.8453 8.42298 25.7391C8.50948 25.6527 8.46956 25.4535 8.33649 25.3273C8.19012 25.1746 7.99052 25.1547 7.90403 25.2609ZM7.14557 24.2848C7.03911 24.3512 7.03911 24.5238 7.14557 24.6766C7.25202 24.8293 7.43165 24.8957 7.51815 24.8293C7.6246 24.743 7.6246 24.5703 7.51815 24.4176C7.425 24.2648 7.25202 24.1984 7.14557 24.2848Z" fill="#F25C54"/>
</svg>
