<svg width="29" height="34" viewBox="0 0 29 34" fill="none" xmlns="http://www.w3.org/2000/svg">
<g clip-path="url(#clip0_19_463)">
<path d="M14.5065 9.36318C10.3895 9.36318 7.06875 12.7698 7.06875 16.9933C7.06875 21.2167 10.3895 24.6233 14.5065 24.6233C18.6234 24.6233 21.9442 21.2167 21.9442 16.9933C21.9442 12.7698 18.6234 9.36318 14.5065 9.36318ZM14.5065 21.9538C11.846 21.9538 9.67098 19.7292 9.67098 16.9933C9.67098 14.2573 11.8395 12.0327 14.5065 12.0327C17.1734 12.0327 19.342 14.2573 19.342 16.9933C19.342 19.7292 17.167 21.9538 14.5065 21.9538ZM23.9833 9.05107C23.9833 10.0405 23.2065 10.8308 22.2484 10.8308C21.2839 10.8308 20.5136 10.0339 20.5136 9.05107C20.5136 8.06826 21.2904 7.27139 22.2484 7.27139C23.2065 7.27139 23.9833 8.06826 23.9833 9.05107ZM28.9094 10.8573C28.7993 8.47334 28.2685 6.36162 26.5661 4.62178C24.8701 2.88193 22.8116 2.3374 20.4877 2.21787C18.0926 2.07842 10.9138 2.07842 8.51875 2.21787C6.20134 2.33076 4.14286 2.87529 2.4404 4.61514C0.737949 6.35498 0.213619 8.4667 0.0971008 10.8507C-0.0388367 13.3077 -0.0388367 20.6722 0.0971008 23.1292C0.207145 25.5132 0.737949 27.6249 2.4404 29.3647C4.14286 31.1046 6.19487 31.6491 8.51875 31.7687C10.9138 31.9081 18.0926 31.9081 20.4877 31.7687C22.8116 31.6558 24.8701 31.1112 26.5661 29.3647C28.2621 27.6249 28.7929 25.5132 28.9094 23.1292C29.0453 20.6722 29.0453 13.3144 28.9094 10.8573ZM25.8152 25.7655C25.3103 27.0671 24.3328 28.0698 23.0576 28.5944C21.148 29.3714 16.6167 29.1921 14.5065 29.1921C12.3962 29.1921 7.85848 29.3647 5.95536 28.5944C4.68661 28.0765 3.70915 27.0737 3.19777 25.7655C2.4404 23.8065 2.61518 19.1581 2.61518 16.9933C2.61518 14.8284 2.44688 10.1733 3.19777 8.221C3.70268 6.91943 4.68014 5.9167 5.95536 5.39209C7.86496 4.61514 12.3962 4.79443 14.5065 4.79443C16.6167 4.79443 21.1545 4.62178 23.0576 5.39209C24.3263 5.91006 25.3038 6.91279 25.8152 8.221C26.5725 10.18 26.3978 14.8284 26.3978 16.9933C26.3978 19.1581 26.5725 23.8132 25.8152 25.7655Z" fill="#F25C54"/>
</g>
<defs>
<clipPath id="clip0_19_463">
<rect width="29" height="34" fill="white"/>
</clipPath>
</defs>
</svg>
