<svg width="29" height="34" viewBox="0 0 29 34" fill="none" xmlns="http://www.w3.org/2000/svg">
<path d="M6.49263 29.75H0.479018V9.88789H6.49263V29.75ZM3.48259 7.17852C1.56004 7.17852 0 5.54492 0 3.57266C0 2.62513 0.366915 1.71641 1.02003 1.04641C1.67314 0.376404 2.55895 0 3.48259 0C4.40623 0 5.29204 0.376404 5.94515 1.04641C6.59826 1.71641 6.96518 2.62513 6.96518 3.57266C6.96518 5.54492 5.40513 7.17852 3.48259 7.17852ZM28.9935 29.75H22.9929V20.0812C22.9929 17.777 22.9475 14.8219 19.8663 14.8219C16.7397 14.8219 16.2607 17.3254 16.2607 19.9152V29.75H10.2536V9.88789H16.0212V12.5973H16.1054C16.908 11.0367 18.8694 9.38984 21.7953 9.38984C27.8801 9.38984 29 13.5004 29 18.8395V29.75H28.9935Z" fill="#F25C54"/>
</svg>
