<svg width="25" height="25" viewBox="0 0 25 25" fill="none" xmlns="http://www.w3.org/2000/svg">
<path d="M24.3222 0.273567C24.8153 0.615294 25.0741 1.20599 24.9814 1.79669L21.8563 22.105C21.7831 22.5785 21.495 22.9935 21.0751 23.2278C20.6551 23.4621 20.1522 23.4914 19.7078 23.3059L13.8679 20.8796L10.5231 24.4971C10.0886 24.9706 9.40495 25.1268 8.80435 24.8925C8.20376 24.6582 7.81313 24.0772 7.81313 23.4328V19.3516C7.81313 19.1564 7.88637 18.9709 8.01821 18.8293L16.2019 9.90048C16.4851 9.59293 16.4754 9.11939 16.1824 8.82648C15.8894 8.53357 15.4158 8.51405 15.1082 8.79231L5.17637 17.6137L0.86478 15.456C0.347194 15.1972 0.0151572 14.6798 0.000508579 14.1037C-0.0141401 13.5277 0.288599 12.9907 0.786654 12.7026L22.662 0.205222C23.1845 -0.0925675 23.829 -0.0632767 24.3222 0.273567Z" fill="white"/>
</svg>
