<?xml version="1.0" encoding="UTF-8"?>
<svg width="111px" height="104px" viewBox="0 0 111 104" version="1.1" xmlns="http://www.w3.org/2000/svg" xmlns:xlink="http://www.w3.org/1999/xlink">
    <title>snow</title>
    <defs>
        <polygon id="path-1" points="0 0.3514 110.2962 0.3514 110.2962 73.19578 0 73.19578"></polygon>
    </defs>
    <g id="Home" stroke="none" stroke-width="1" fill="none" fill-rule="evenodd">
        <g transform="translate(-839.000000, -2409.000000)" id="weather">
            <g transform="translate(86.000000, 2167.000000)">
                <g id="snow" transform="translate(753.000000, 242.000000)">
                    <g id="Group-3" transform="translate(0.000000, 0.348600)">
                        <mask id="mask-2" fill="white">
                            <use xlink:href="#path-1"></use>
                        </mask>
                        <g id="Clip-2"></g>
                        <path d="M92.85948,33.53308 C93.16608,31.85098 93.33198,30.14578 93.33198,28.42168 C93.33198,12.93418 80.73408,0.35098 65.26128,0.35098 C55.73988,0.35098 46.98708,5.12218 41.82528,12.97198 C39.39768,11.93038 36.78948,11.38018 34.15608,11.38018 C23.41458,11.38018 14.69328,20.11198 14.69328,30.83878 C14.69328,31.05088 14.70588,31.26508 14.70588,31.48138 C6.04758,34.31218 -0.00042,42.50008 -0.00042,51.80938 C-0.00042,63.60088 9.58608,73.19578 21.38178,73.19578 L31.93008,73.19578 C35.26278,73.19578 35.08848,67.63288 31.93008,67.63288 L21.38178,67.63288 C12.66048,67.63288 5.55408,60.52858 5.55408,51.80938 C5.55408,44.28718 10.89648,37.75408 18.26328,36.28828 L20.89248,35.75698 L20.46408,33.11098 C20.32128,32.27728 20.25618,31.54438 20.25618,30.83878 C20.25618,23.17588 26.49318,16.94728 34.15608,16.94728 C36.70338,16.94728 39.21288,17.67178 41.41158,19.01788 L43.94838,20.57608 L45.32808,17.95528 C49.24878,10.51498 56.88018,5.90968 65.26128,5.90968 C77.66598,5.90968 87.76488,16.00228 87.76488,28.42168 C87.76488,30.77998 87.39108,33.11938 86.67078,35.34958 L85.40028,39.25978 L89.72208,38.97628 C89.93838,38.95948 90.16308,38.95528 90.38568,38.95528 C98.28798,38.95528 104.73918,45.38338 104.73918,53.28148 C104.73918,61.19008 98.28798,67.63288 90.38568,67.63288 L78.35268,67.63288 C74.75118,67.63288 74.19678,73.19578 78.35268,73.19578 L90.38568,73.19578 L90.38568,73.18738 C101.36868,73.18738 110.29788,64.25818 110.29788,53.28148 C110.29788,43.13848 102.66858,34.75528 92.85948,33.53308" id="Fill-1" fill="#124559" mask="url(#mask-2)"></path>
                    </g>
                    <path d="M55.09854,85.5899883 C53.13504,85.59418 51.54114,84.01078 51.53694,82.05778 C51.51804,80.09008 53.11404,78.48568 55.08594,78.47728 C57.04104,78.47728 58.64754,80.05228 58.64754,82.03048 C58.66644,83.98978 57.07044,85.58578 55.09854,85.5899883 M74.72934,79.69108 L64.05714,79.71628 L64.05714,79.73728 C63.83244,78.86368 63.48594,78.03418 63.02394,77.28028 L67.81404,72.45658 C68.69814,71.56198 68.69814,70.12768 67.80774,69.24148 C66.91104,68.35948 65.47254,68.36368 64.58004,69.26248 L59.79204,74.07778 C59.03814,73.62628 58.20654,73.27768 57.34764,73.06348 L57.30144,62.39128 C57.30144,61.13338 56.27874,60.11488 55.01034,60.1273643 C53.76714,60.13168 52.72974,61.14808 52.75494,62.41228 L52.78014,73.08448 C51.90444,73.29658 51.09384,73.64728 50.33994,74.10088 L45.77664,69.57748 C44.88834,68.68288 43.44774,68.68708 42.55314,69.57748 C41.66694,70.47208 41.66694,71.91478 42.55314,72.79678 L47.12484,77.34118 L47.13534,77.32858 C46.68174,78.08878 46.32894,78.91618 46.10634,79.80658 C46.12314,79.80238 46.12314,79.79398 46.12314,79.79398 L35.44254,79.82758 C34.18674,79.82758 33.17244,80.85658 33.1849239,82.12078 C33.1849239,83.37448 34.20354,84.38878 35.46144,84.38458 L46.12944,84.33418 L46.12944,84.32578 C46.35834,85.19938 46.70484,86.03308 47.15844,86.78698 L42.37044,91.60228 C41.48424,92.49268 41.48844,93.96058 42.38724,94.83838 C42.82404,95.27728 43.41414,95.49568 44.00214,95.49568 C44.58174,95.48308 45.15714,95.26468 45.60444,94.82578 L50.39244,89.99998 C51.14634,90.45358 51.97794,90.79168 52.84944,91.00798 L52.88934,101.68018 C52.88934,102.94858 53.91834,103.95238 55.16364,103.948193 C56.42784,103.948193 57.44004,102.93178 57.43584,101.66758 L57.40644,90.98278 C58.27794,90.76648 59.11374,90.40948 59.86344,89.96218 L59.85714,89.96218 L64.40994,94.49398 C64.85514,94.94968 65.44104,95.15968 66.02274,95.15968 C66.60444,95.15968 67.18824,94.92868 67.63764,94.48138 C68.52594,93.58888 68.51964,92.15668 67.63134,91.26208 L63.05964,86.73868 C63.05964,86.73868 63.05964,86.74708 63.04914,86.74708 C63.50274,85.98688 63.84294,85.15948 64.06764,84.28168 L74.74194,84.23968 C75.98514,84.22918 77.01834,83.21488 76.9996953,81.95278 C76.9996953,80.70538 75.98094,79.68058 74.72934,79.69108" id="Fill-4" fill="#71B7D3"></path>
                </g>
            </g>
        </g>
    </g>
</svg>