<?xml version="1.0" encoding="UTF-8"?>
<svg width="88px" height="89px" viewBox="0 0 88 89" version="1.1" xmlns="http://www.w3.org/2000/svg" xmlns:xlink="http://www.w3.org/1999/xlink">
    <title>sun</title>
    <defs>
        <polygon id="path-1" points="0.41884 0.3885 5.97754 0.3885 5.97754 15.55932 0.41884 15.55932"></polygon>
    </defs>
    <g id="Home" stroke="none" stroke-width="1" fill="none" fill-rule="evenodd">
        <g transform="translate(-850.000000, -2259.000000)" id="weather">
            <g transform="translate(86.000000, 2167.000000)">
                <g id="sun" transform="translate(764.000000, 92.000000)">
                    <g id="Group-3" transform="translate(40.700000, 0.312340)">
                        <mask id="mask-2" fill="white">
                            <use xlink:href="#path-1"></use>
                        </mask>
                        <g id="Clip-2"></g>
                        <path d="M3.19714,15.55932 C1.66624,15.55932 0.41884,14.32032 0.41884,12.77892 L0.41884,3.17352 C0.41884,1.64262 1.66624,0.38682 3.19714,0.38682 C4.74064,0.38682 5.97754,1.64262 5.97754,3.17352 L5.97754,12.77892 C5.97754,14.32032 4.74064,15.55932 3.19714,15.55932" id="Fill-1" fill="#F5A714" mask="url(#mask-2)"></path>
                    </g>
                    <path d="M43.89714,88.51234 C42.36624,88.51234 41.11884,87.26284 41.11884,85.72564 L41.11884,76.12024 C41.11884,74.58304 42.36624,73.33984 43.89714,73.33984 C45.44064,73.33984 46.67754,74.58304 46.67754,76.12024 L46.67754,85.72564 C46.67754,87.26284 45.44064,88.51234 43.89714,88.51234" id="Fill-4" fill="#F5A714"></path>
                    <path d="M12.38475,47.38804 L2.78565,47.38804 C1.24845,47.38804 0.00105,46.14484 0.00105,44.60344 C0.00105,43.06414 1.24845,41.83144 2.78565,41.83144 L12.38475,41.83144 C13.92615,41.83144 15.16305,43.06414 15.16305,44.60344 C15.16305,46.14484 13.92615,47.38804 12.38475,47.38804" id="Fill-6" fill="#F5A714"></path>
                    <path d="M85.02543,47.38804 L75.42213,47.38804 C73.87653,47.38804 72.63753,46.14484 72.63753,44.60764 C72.63753,43.07674 73.87653,41.83144 75.42213,41.83144 L85.02543,41.83144 C86.55633,41.83144 87.79323,43.07674 87.79323,44.60764 C87.79323,46.14484 86.55633,47.38804 85.02543,47.38804" id="Fill-8" fill="#F5A714"></path>
                    <path d="M67.18362,24.88066 C66.47592,24.88066 65.75772,24.60766 65.21592,24.06586 C64.12602,22.98436 64.12602,21.22036 65.21592,20.13886 L72.01992,13.34116 C73.10142,12.25336 74.85492,12.25336 75.95322,13.34116 C77.02842,14.42686 77.02842,16.19506 75.93432,17.27866 L69.15342,24.06586 C68.60742,24.60766 67.89342,24.88066 67.18362,24.88066" id="Fill-10" fill="#F5A714"></path>
                    <path d="M14.89278,77.1694 C14.17458,77.1694 13.47318,76.8985 12.93138,76.3567 C11.83728,75.2668 11.83728,73.507 12.92088,72.415 L19.71648,65.632 C20.81058,64.5484 22.56828,64.5484 23.64978,65.632 C24.74598,66.7135 24.74598,68.4775 23.64978,69.5674 L16.86048,76.3567 C16.31868,76.8985 15.60678,77.1694 14.89278,77.1694" id="Fill-12" fill="#F5A714"></path>
                    <path d="M73.98405,76.76347 C73.25955,76.76347 72.55395,76.48417 72.01845,75.94237 L65.21445,69.14887 C64.12665,68.06317 64.12665,66.30547 65.21445,65.21977 C66.30645,64.12987 68.06625,64.12987 69.15405,65.21977 L75.93495,72.01747 C77.02905,73.10107 77.02905,74.86297 75.95175,75.94237 C75.40365,76.48417 74.69175,76.76347 73.98405,76.76347" id="Fill-14" fill="#F5A714"></path>
                    <path d="M21.68922,25.35862 C20.97522,25.35862 20.26962,25.09192 19.71732,24.53752 L12.93222,17.74612 C11.83812,16.65832 11.83812,14.90272 12.93222,13.82122 C14.01792,12.73762 15.77772,12.73762 16.86132,13.82122 L23.65062,20.61052 C24.74682,21.70042 24.74682,23.46022 23.65062,24.53752 C23.10882,25.09192 22.40322,25.35862 21.68922,25.35862" id="Fill-16" fill="#F5A714"></path>
                    <path d="M43.89714,21.36358 C31.06614,21.36358 20.66064,31.77118 20.66064,44.60218 C20.66064,57.45418 31.06614,67.84708 43.89714,67.84708 C56.73024,67.84708 67.13574,57.45418 67.13574,44.60218 C67.13574,31.77118 56.73024,21.36358 43.89714,21.36358 M43.89714,26.93488 C53.65584,26.93488 61.58334,34.85608 61.58334,44.60218 C61.58334,54.34828 53.65584,62.28628 43.89714,62.28628 C34.15104,62.28628 26.22354,54.34828 26.22354,44.60218 C26.22354,34.85608 34.15104,26.93488 43.89714,26.93488" id="Fill-18" fill="#F5A714"></path>
                </g>
            </g>
        </g>
    </g>
</svg>