<?xml version="1.0" encoding="UTF-8"?>
<svg width="111px" height="112px" viewBox="0 0 111 112" version="1.1" xmlns="http://www.w3.org/2000/svg" xmlns:xlink="http://www.w3.org/1999/xlink">
    <title>thunder</title>
    <defs>
        <polygon id="path-1" points="0 0.50841 110.3004 0.50841 110.3004 73.34901 0 73.34901"></polygon>
    </defs>
    <g id="Home" stroke="none" stroke-width="1" fill="none" fill-rule="evenodd">
        <g transform="translate(-588.000000, -2247.000000)" id="weather">
            <g transform="translate(86.000000, 2167.000000)">
                <g id="thunder" transform="translate(502.000000, 80.000000)">
                    <path d="M27.32478,98.38276 C26.92368,98.38276 26.50368,98.29246 26.13408,98.11186 C24.73968,97.45246 24.16008,95.77876 24.82158,94.39696 L30.63858,82.25476 C31.30848,80.87296 32.95488,80.28286 34.35558,80.95486 C35.74158,81.62056 36.32958,83.27746 35.65548,84.66346 L29.84898,96.80356 C29.37018,97.79686 28.35798,98.38276 27.32478,98.38276" id="Fill-1" fill="#1B86D0"></path>
                    <path d="M13.51686,98.38276 C13.11996,98.38276 12.70626,98.29246 12.31146,98.11186 C10.93596,97.45246 10.35846,95.77876 11.01996,94.39696 L16.83696,82.25476 C17.49216,80.87296 19.16166,80.28286 20.55816,80.95486 C21.93156,81.62056 22.52166,83.27746 21.84756,84.66346 L16.03266,96.80356 C15.55176,97.79686 14.55636,98.38276 13.51686,98.38276" id="Fill-3" fill="#1B86D0"></path>
                    <path d="M84.28938,98.38276 C83.87148,98.38276 83.46828,98.29246 83.07558,98.11186 C81.69798,97.45246 81.10578,95.77876 81.77148,94.39696 L87.59058,82.25476 C88.25628,80.87296 89.91738,80.28286 91.30758,80.95486 C92.69778,81.62056 93.27948,83.27746 92.61588,84.66346 L86.78208,96.80356 C86.31588,97.79686 85.32258,98.38276 84.28938,98.38276" id="Fill-5" fill="#1B86D0"></path>
                    <path d="M70.47117,98.38276 C70.07427,98.38276 69.66267,98.29246 69.26997,98.11186 C67.88817,97.45246 67.29597,95.77876 67.97427,94.39696 L73.78497,82.25476 C74.45277,80.87296 76.11597,80.28286 77.50617,80.95486 C78.89637,81.62056 79.46967,83.27746 78.81027,84.66346 L72.98067,96.80356 C72.51447,97.79686 71.51277,98.38276 70.47117,98.38276" id="Fill-7" fill="#1B86D0"></path>
                    <path d="M44.17182,111.49138 C43.68462,111.49138 43.18692,111.35278 42.72912,111.07768 C41.42082,110.29438 41.00502,108.58288 41.79672,107.26618 L58.40772,79.83598 L41.04492,79.83598 L60.63582,52.02358 C61.53042,50.77198 63.25242,50.46328 64.51662,51.34948 C65.77032,52.23988 66.06642,53.97868 65.18442,55.23868 L51.76752,74.26468 L68.29662,74.26468 L46.55112,110.14528 C46.02822,111.01048 45.11892,111.49138 44.17182,111.49138" id="Fill-9" fill="#F5A714"></path>
                    <g id="Group-13" transform="translate(0.000000, 0.191380)">
                        <mask id="mask-2" fill="white">
                            <use xlink:href="#path-1"></use>
                        </mask>
                        <g id="Clip-12"></g>
                        <path d="M92.86977,33.68211 C93.17637,32.00001 93.33807,30.29481 93.33807,28.56651 C93.33807,13.08741 80.75067,0.50841 65.26947,0.50841 C55.75017,0.50841 46.99737,5.27961 41.81877,13.13361 C39.41217,12.08361 36.81237,11.52921 34.15797,11.52921 C23.43747,11.52921 14.70357,20.25681 14.70357,30.99621 C14.70357,31.19991 14.70987,31.41831 14.70987,31.63041 C6.05577,34.47801 -0.00063,42.65541 -0.00063,51.95841 C-0.00063,63.75411 9.60477,73.34901 21.39837,73.34901 L31.94667,73.34901 C35.28357,73.34901 35.09037,67.79451 31.94667,67.79451 L21.39837,67.79451 C12.66237,67.79451 5.56647,60.67761 5.56647,51.95841 C5.56647,44.43201 10.90887,37.91571 18.27567,36.44151 L20.90697,35.92491 L20.47227,33.26421 C20.33367,32.43051 20.27487,31.68921 20.27487,30.99621 C20.27487,23.33751 26.49717,17.09631 34.15797,17.09631 C36.71787,17.09631 39.22527,17.82081 41.43447,19.17531 L43.96077,20.72931 L45.35727,18.10431 C49.25697,10.67241 56.89467,6.06711 65.26947,6.06711 C77.68257,6.06711 87.77517,16.15971 87.77517,28.56651 C87.77517,30.94161 87.40137,33.27261 86.68947,35.51541 L85.41267,39.41931 L89.73657,39.13371 C89.95287,39.11691 90.16287,39.10011 90.40017,39.10011 C98.30037,39.10011 104.75157,45.52821 104.75157,53.43891 C104.75157,61.34751 98.30037,67.78191 90.40017,67.79451 L78.36717,67.79451 C74.75727,67.79451 74.19867,73.34901 78.36717,73.34901 L90.40017,73.34901 C101.38107,73.34901 110.30187,64.41561 110.30187,53.43891 C110.30187,43.29591 102.68097,34.90431 92.86977,33.68211" id="Fill-11" fill="#124559" mask="url(#mask-2)"></path>
                    </g>
                </g>
            </g>
        </g>
    </g>
</svg>