<?xml version="1.0" encoding="UTF-8"?>
<svg width="89px" height="52px" viewBox="0 0 89 52" version="1.1" xmlns="http://www.w3.org/2000/svg" xmlns:xlink="http://www.w3.org/1999/xlink">
    <title>wind</title>
    <defs>
        <polygon id="path-1" points="0 0.203231264 88.3779638 0.203231264 88.3779638 18.63739 0 18.63739"></polygon>
        <polygon id="path-3" points="0 0.468145942 88.3779638 0.468145942 88.3779638 18.9 0 18.9"></polygon>
        <polygon id="path-5" points="0 0.1435 88.3779638 0.1435 88.3779638 18.57457 0 18.57457"></polygon>
    </defs>
    <g id="Home" stroke="none" stroke-width="1" fill="none" fill-rule="evenodd">
        <g transform="translate(-608.000000, -2436.000000)" id="weather">
            <g transform="translate(86.000000, 2167.000000)">
                <g id="wind" transform="translate(522.000000, 269.000000)">
                    <g id="Group-3" transform="translate(0.000000, 16.756500)">
                        <mask id="mask-2" fill="white">
                            <use xlink:href="#path-1"></use>
                        </mask>
                        <g id="Clip-2"></g>
                        <path d="M62.65623,18.63739 C55.98663,18.63739 49.83993,16.74319 44.47443,12.95689 C29.43633,2.34349 16.76283,1.75339 3.36273,11.03749 C2.39253,11.70109 1.04853,11.46589 0.37863,10.50199 C-0.28707,9.52339 -0.05607,8.18569 0.92253,7.50109 C15.81993,-2.82881 30.45483,-2.20301 46.95033,9.44569 C59.90523,18.58699 74.86353,13.39159 85.15353,7.40659 C86.16783,6.82489 87.48873,7.16719 88.08303,8.18989 C88.68153,9.22309 88.34133,10.53769 87.31443,11.13199 C78.70863,16.12579 70.34433,18.63739 62.65623,18.63739" id="Fill-1" fill="#124559" mask="url(#mask-2)"></path>
                    </g>
                    <g id="Group-6" transform="translate(0.000000, 32.756500)">
                        <mask id="mask-4" fill="white">
                            <use xlink:href="#path-3"></use>
                        </mask>
                        <g id="Clip-5"></g>
                        <path d="M62.65623,18.9 C55.98663,18.9 49.83993,17.01 44.47443,13.2237 C29.43633,2.6082 16.76283,2.0034 3.36273,11.3001 C2.39253,11.9721 1.04853,11.7306 0.37863,10.7604 C-0.28707,9.7818 -0.05607,8.4336 0.92253,7.7721 C15.81993,-2.562 30.45483,-1.9446 46.95033,9.7167 C59.89263,18.8517 74.86353,13.6458 85.15353,7.686 C86.18463,7.0854 87.48873,7.4382 88.08303,8.4441 C88.68153,9.4878 88.34133,10.7961 87.31443,11.3967 C78.70863,16.3863 70.34433,18.9 62.65623,18.9" id="Fill-4" fill="#124559" mask="url(#mask-4)"></path>
                    </g>
                    <g id="Group-9" transform="translate(0.000000, 0.556500)">
                        <mask id="mask-6" fill="white">
                            <use xlink:href="#path-5"></use>
                        </mask>
                        <g id="Clip-8"></g>
                        <path d="M62.65623,18.57457 C55.98663,18.57457 49.83993,16.68457 44.47443,12.89617 C29.43633,2.27857 16.76283,1.68847 3.36273,10.97467 C2.39253,11.65507 1.04853,11.40097 0.37863,10.42657 C-0.28707,9.45637 -0.05607,8.12287 0.92253,7.44667 C15.81993,-2.88323 30.45483,-2.27003 46.95033,9.37867 C59.89263,18.52837 74.86353,13.32457 85.15353,7.34797 C86.18463,6.75997 87.48873,7.10647 88.08303,8.13127 C88.68153,9.16237 88.34133,10.47067 87.31443,11.07127 C78.70863,16.06087 70.34433,18.57457 62.65623,18.57457" id="Fill-7" fill="#124559" mask="url(#mask-6)"></path>
                    </g>
                </g>
            </g>
        </g>
    </g>
</svg>