<?xml version="1.0" encoding="UTF-8"?>
<svg width="52px" height="50px" viewBox="0 0 52 50" version="1.1" xmlns="http://www.w3.org/2000/svg" xmlns:xlink="http://www.w3.org/1999/xlink">
    <title>logo</title>
    <g id="Symbols" stroke="none" stroke-width="1" fill="none" fill-rule="evenodd">
        <g id="Header" transform="translate(-15.000000, -9.000000)" fill-rule="nonzero">
            <g id="logo">
                <g transform="translate(15.000000, 9.000000)">
                    <polygon id="Path" fill="#D09080" points="25.2422 4.4091 26.7644 4.4091 26.7644 21.1874 25.2422 21.1874"></polygon>
                    <path d="M31.8455,25.858 C33.1895,28.1865 34.5336,30.5149 35.8777,32.8434 L45.7535,49.9477 L6.2532,49.9477 L16.129,32.8434 C17.4734,30.5156 18.8178,28.1872 20.1622,25.8586 L31.8455,25.858 Z" id="Path" fill="#477B9E"></path>
                    <path d="M20.1626,25.8589 L25.0296,29.3002 C25.7099,29.7339 26.359,29.7367 26.9798,29.3002 L31.844,25.8589 C30.1263,22.8825 28.4085,19.9062 26.6907,16.9326 C26.3023,16.2637 25.6872,16.2863 25.3131,16.9354 C23.5953,19.909 21.8804,22.8854 20.1626,25.8589 L20.1626,25.8589 Z" id="Path" fill="#E1F1FF"></path>
                    <path d="M51.0343,48.4879 C51.4567,49.2193 51.0343,49.9478 50.1924,49.9478 L32.1359,49.9478 C31.2997,49.9478 30.8773,49.2278 31.2855,48.5021 L35.8067,40.67 L37.3024,38.0786 L45.0241,38.0796 C47.0276,41.5496 49.0309,45.0193 51.0343,48.4879 L51.0343,48.4879 Z" id="Path" fill="#365E7D"></path>
                    <path d="M10.6466,41.1717 C12.0556,43.6121 13.465,46.0522 14.8731,48.4935 C15.2898,49.222 14.8674,49.9477 14.0284,49.9477 L1.6866,49.9477 C0.8419,49.9477 0.4223,49.2192 0.8419,48.4878 C2.2502,46.0481 3.6586,43.6096 5.0669,41.1708 L10.6466,41.1717 Z" id="Path" fill="#365E7D"></path>
                    <path d="M47.5506,11.8189 L34.225,11.8189 C33.7743,11.7565 33.42,11.3994 33.3548,10.9487 L33.3548,3.9755 L47.5506,3.9755 C47.8085,3.9925 47.8766,4.1257 47.7546,4.3809 L45.1099,7.8958 L47.7546,11.4107 C47.8539,11.5468 47.7802,11.8161 47.5506,11.8189 Z" id="Path" fill="#CF4351"></path>
                    <path d="M33.3548,9.7014 L33.3548,3.9754 L42.5134,3.9754 L42.5134,7.961 C42.3887,8.8624 41.6744,9.5768 40.773,9.7015 L33.3548,9.7015 L33.3548,9.7014 Z" id="Path" fill="#BD3341"></path>
                    <path d="M39.8404,7.8958 L26.1124,7.8958 C25.6617,7.8335 25.3073,7.4763 25.2421,7.0284 L25.2421,0.9226 C25.3073,0.4719 25.6616,0.1147 26.1124,0.0523 L39.8404,0.0523 C40.2882,0.1147 40.6454,0.4719 40.7078,0.9226 L40.7078,7.0284 C40.6455,7.4762 40.2883,7.8334 39.8404,7.8958 Z" id="Path" fill="#FF6978"></path>
                    <g id="Group" transform="translate(0.000000, 10.000000)" fill="#E1F1FF">
                        <path d="M37.3035,28.0791 L40.4442,30.2986 C40.9488,30.6274 41.4306,30.6387 41.8842,30.2986 L45.025,28.0791 C43.8713,26.0835 42.7204,24.0908 41.5696,22.0952 C41.3399,21.6984 40.9771,21.7125 40.756,22.0952 C39.6051,24.0907 38.4543,26.0835 37.3035,28.0791 Z" id="Path"></path>
                        <path d="M5.0683,31.1716 L7.3473,32.7845 C7.6875,33.0227 8.0276,33.0227 8.3649,32.7845 L10.6468,31.1716 C9.8503,29.794 9.0566,28.4192 8.2629,27.0444 C8.0333,26.6476 7.6704,26.6617 7.4493,27.0444 C6.6557,28.4192 5.862,29.7968 5.0683,31.1716 Z" id="Path"></path>
                        <path d="M15.596,4.5005 L15.5988,4.5005 C17.5121,4.5005 19.0797,6.0681 19.0797,7.9815 C19.0797,9.8949 17.5121,11.4625 15.5988,11.4625 L3.4809,11.4625 C1.5676,11.4625 0,9.8948 0,7.9814 C0,6.068 1.5676,4.5004 3.4809,4.5004 C3.4809,2.0456 5.4708,0.0528 7.9284,0.0528 C9.4733,0.0528 10.8339,0.8409 11.6304,2.0371 C12.0386,1.7622 12.5318,1.6006 13.0619,1.6006 C14.4764,1.6006 15.6187,2.7458 15.6187,4.1574 C15.6187,4.2737 15.613,4.3871 15.596,4.5005 L15.596,4.5005 Z" id="Path"></path>
                    </g>
                    <path d="M17.2004,16.1021 C17.2004,18.0183 15.6358,19.583 13.7195,19.583 L1.6044,19.583 C1.131,19.583 0.6803,19.4895 0.2693,19.3166 C0.7937,20.5723 2.0381,21.4624 3.4809,21.4624 L15.5989,21.4624 C17.5122,21.4624 19.0798,19.8948 19.0798,17.9814 C19.0798,16.5386 18.1897,15.2942 16.934,14.7669 C17.1069,15.1808 17.2004,15.6315 17.2004,16.1021 Z" id="Path" fill="#CBE2FF"></path>
                    <polygon id="Path" fill="#365E7D" points="33.3775 32.8435 36.8528 38.8614 37.3035 38.0791 38.1028 36.6958 35.8776 32.8435 31.844 25.8589 30.0695 27.1147"></polygon>
                    <path d="M26.6482,21.1874 L30.0695,27.1147 L31.844,25.8589 L26.7644,17.0573 L26.6935,16.9326 C26.6907,16.9326 26.6907,16.9326 26.6907,16.9326 C26.4979,16.601 26.2513,16.4394 26.0047,16.4394 C25.7524,16.4394 25.5029,16.6095 25.313,16.9354 L25.2421,17.0573 L24.7545,17.9049 L25.2421,18.7553 L26.0047,20.0706 L26.6482,21.1874 Z" id="Path" fill="#CBE2FF"></path>
                    <path d="M43.2476,39.3348 C45.0108,42.3848 46.771,45.4378 48.5341,48.4878 C48.9565,49.2192 48.5341,49.9477 47.6923,49.9477 L50.1924,49.9477 C51.0343,49.9477 51.4567,49.2192 51.0343,48.4878 C49.0302,45.0182 47.0262,41.5486 45.025,38.079 L43.2476,39.3348 Z" id="Path" fill="#294B64"></path>
                    <path d="M39.9141,33.5578 C41.0253,35.4826 42.1364,37.4073 43.2476,39.3349 L45.0221,38.0791 C43.8712,36.0835 42.7203,34.0908 41.5696,32.0952 C41.3399,31.6984 40.9771,31.7125 40.756,32.0952 L39.9141,33.5578 Z" id="Path" fill="#CBE2FF"></path>
                    <path d="M9.734,43.9213 L12.3731,48.4936 C12.7898,49.2221 12.3674,49.9478 11.5284,49.9478 L14.0285,49.9478 C14.8676,49.9478 15.2899,49.2221 14.8732,48.4936 L10.9841,41.7557 L10.6468,41.1717 L8.8695,42.4275 L9.734,43.9213 Z" id="Path" fill="#294B64"></path>
                    <path d="M6.6075,38.5043 L8.8696,42.4274 L10.6469,41.1716 L8.263,37.0444 C8.0334,36.6476 7.6705,36.6617 7.4494,37.0444 L6.6075,38.5043 Z" id="Path" fill="#CBE2FF"></path>
                </g>
            </g>
        </g>
    </g>
</svg>